<svg width="390" height="684" viewBox="0 0 390 684" fill="none" xmlns="http://www.w3.org/2000/svg">
<path d="M390 413.115C237.699 382.994 152.297 381.604 0 413.115V684H390V413.115Z" fill="#F0EFED" stroke="#202020"/>
<path d="M210 396.5V352.5L233.5 335.065L233 320H246V328.434L271.5 323L288.5 352.5V396.5L260.5 404.5L210 396.5Z" fill="#F64725"/>
<path d="M260.5 404.5L210 396.5V352.5L233.5 335.065M260.5 404.5L288.5 396.5V352.5L271.5 323L246 328.434M260.5 404.5V359.5L241 329.5M241 329.5L233.5 335.065M241 329.5L246 328.434M233.5 335.065L233 320H246V328.434" stroke="#202020" stroke-width="0.5"/>
<path d="M240 313C245 274.5 188.981 304.337 178 279C163.283 245.044 231.447 235.347 228 198.5C223.377 149.086 119.455 183.62 118.5 134C117.783 96.7727 182.463 96.4658 178 59.5C173.621 23.2305 105 1 105 1" stroke="#F0EFED" stroke-width="0.5" stroke-dasharray="20 20"/>
</svg>
