<svg width="100" height="27" viewBox="0 0 100 27" fill="none" xmlns="http://www.w3.org/2000/svg">
<path d="M1.0964 11.0996V1.85289H3.23635V9.35594H7.87292V11.0996H1.0964ZM8.8044 11.0996V1.85289H10.9444V11.0996H8.8044ZM14.79 8.98607L14.6711 6.51588L19.0963 1.85289H21.4741L17.4848 6.14601L16.2959 7.41413L14.79 8.98607ZM12.8746 11.0996V1.85289H15.0014V11.0996H12.8746ZM19.202 11.0996L15.9128 7.07068L17.313 5.55158L21.6986 11.0996H19.202ZM24.3569 5.578H28.8085V7.24241H24.3569V5.578ZM24.5154 9.38236H29.5482V11.0996H22.3886V1.85289H29.3765V3.57014H24.5154V9.38236ZM30.9867 11.0996V1.85289H33.1267V9.35594H37.7633V11.0996H30.9867ZM38.6947 11.0996V1.85289H40.8347V11.0996H38.6947ZM47.2562 11.2581C46.5253 11.2581 45.8472 11.1392 45.2219 10.9015C44.6055 10.6637 44.0683 10.329 43.6104 9.89754C43.1612 9.46602 42.809 8.95965 42.5536 8.37843C42.307 7.79721 42.1837 7.16315 42.1837 6.47625C42.1837 5.78935 42.307 5.15529 42.5536 4.57407C42.809 3.99284 43.1656 3.48648 43.6236 3.05496C44.0815 2.62345 44.6187 2.28881 45.2351 2.05103C45.8516 1.81326 46.5209 1.69437 47.243 1.69437C47.9739 1.69437 48.6432 1.81326 49.2509 2.05103C49.8673 2.28881 50.4001 2.62345 50.8492 3.05496C51.3071 3.48648 51.6638 3.99284 51.9192 4.57407C52.1746 5.14648 52.3023 5.78054 52.3023 6.47625C52.3023 7.16315 52.1746 7.80161 51.9192 8.39164C51.6638 8.97286 51.3071 9.47923 50.8492 9.91075C50.4001 10.3335 49.8673 10.6637 49.2509 10.9015C48.6432 11.1392 47.9783 11.2581 47.2562 11.2581ZM47.243 9.4352C47.6569 9.4352 48.0356 9.36475 48.379 9.22385C48.7313 9.08294 49.0395 8.8804 49.3037 8.6162C49.5679 8.35201 49.7704 8.03939 49.9113 7.67832C50.061 7.31726 50.1359 6.91657 50.1359 6.47625C50.1359 6.03593 50.061 5.63524 49.9113 5.27418C49.7704 4.91311 49.5679 4.60049 49.3037 4.33629C49.0483 4.0721 48.7445 3.86955 48.3922 3.72865C48.04 3.58775 47.6569 3.5173 47.243 3.5173C46.8291 3.5173 46.446 3.58775 46.0938 3.72865C45.7503 3.86955 45.4465 4.0721 45.1823 4.33629C44.9181 4.60049 44.7112 4.91311 44.5614 5.27418C44.4205 5.63524 44.3501 6.03593 44.3501 6.47625C44.3501 6.90776 44.4205 7.30845 44.5614 7.67832C44.7112 8.03939 44.9137 8.35201 45.1691 8.6162C45.4333 8.8804 45.7415 9.08294 46.0938 9.22385C46.446 9.36475 46.8291 9.4352 47.243 9.4352ZM53.6464 11.0996V1.85289H55.4164L60.872 8.51053H60.0134V1.85289H62.1269V11.0996H60.37L54.9013 4.44197H55.7599V11.0996H53.6464Z" fill="black"/>
<path d="M3.06463 19.338H7.51626V21.0024H3.06463V19.338ZM3.22314 23.1424H8.256V24.8596H1.0964V15.6129H8.08428V17.3301H3.22314V23.1424ZM11.7847 24.8596L8.75972 15.6129H10.9789L13.6076 23.8029H12.498L15.2456 15.6129H17.2271L19.869 23.8029H18.799L21.4938 15.6129H23.5413L20.5163 24.8596H18.2178L15.8797 17.6736H16.4873L14.0832 24.8596H11.7847ZM30.8123 15.6129H32.9523V24.8596H30.8123V15.6129ZM26.6117 24.8596H24.4717V15.6129H26.6117V24.8596ZM30.9708 21.0685H26.4532V19.2587H30.9708V21.0685ZM33.6605 24.8596L37.7819 15.6129H39.8955L44.0301 24.8596H41.7844L38.4028 16.6961H39.2482L35.8533 24.8596H33.6605ZM35.7212 22.8782L36.2892 21.2534H41.0447L41.6259 22.8782H35.7212ZM45.785 24.9653C45.4327 24.9653 45.1289 24.8464 44.8735 24.6086C44.6269 24.3621 44.5037 24.0494 44.5037 23.6708C44.5037 23.2921 44.6269 22.9883 44.8735 22.7593C45.1289 22.5215 45.4327 22.4026 45.785 22.4026C46.1461 22.4026 46.4499 22.5215 46.6965 22.7593C46.943 22.9883 47.0663 23.2921 47.0663 23.6708C47.0663 24.0494 46.943 24.3621 46.6965 24.6086C46.4499 24.8464 46.1461 24.9653 45.785 24.9653ZM50.06 24.8596L47.035 15.6129H49.2543L51.883 23.8029H50.7734L53.521 15.6129H55.5024L58.1443 23.8029H57.0743L59.7691 15.6129H61.8166L58.7916 24.8596H56.4931L54.155 17.6736H54.7627L52.3585 24.8596H50.06ZM63.0715 24.9653C62.7192 24.9653 62.4154 24.8464 62.16 24.6086C61.9135 24.3621 61.7902 24.0494 61.7902 23.6708C61.7902 23.2921 61.9135 22.9883 62.16 22.7593C62.4154 22.5215 62.7192 22.4026 63.0715 22.4026C63.4326 22.4026 63.7364 22.5215 63.983 22.7593C64.2295 22.9883 64.3528 23.2921 64.3528 23.6708C64.3528 24.0494 64.2295 24.3621 63.983 24.6086C63.7364 24.8464 63.4326 24.9653 63.0715 24.9653ZM69.6483 25.0181C68.3362 25.0181 67.3102 24.6527 66.5705 23.9217C65.8308 23.1908 65.4609 22.1472 65.4609 20.7911V15.6129H67.6009V20.7118C67.6009 21.5924 67.7814 22.2265 68.1424 22.614C68.5035 23.0015 69.0099 23.1952 69.6615 23.1952C70.3132 23.1952 70.8196 23.0015 71.1807 22.614C71.5417 22.2265 71.7222 21.5924 71.7222 20.7118V15.6129H73.8358V20.7911C73.8358 22.1472 73.4659 23.1908 72.7262 23.9217C71.9864 24.6527 70.9605 25.0181 69.6483 25.0181ZM75.6863 24.8596V15.6129H77.4563L82.9119 22.2705H82.0533V15.6129H84.1668V24.8596H82.4099L76.9412 18.202H77.7998V24.8596H75.6863ZM86.0904 24.8596V15.6129H88.2303V24.8596H86.0904ZM92.8959 24.8596L88.9066 15.6129H91.2183L94.7056 23.8029H93.345L96.8852 15.6129H99.0119L95.0094 24.8596H92.8959Z" fill="black"/>
</svg>
