<svg width="174" height="21" viewBox="0 0 174 21" fill="none" xmlns="http://www.w3.org/2000/svg">
<path d="M5.27363 19.664V20C2.63363 17.968 1.06563 14.784 1.06563 11.04C1.06563 7.232 2.45763 3.904 5.00163 2.08V2.416C3.06563 4.32 2.10563 7.504 2.10563 11.04C2.10563 14.352 3.20963 17.6 5.27363 19.664ZM168.73 20V19.664C170.794 17.6 171.898 14.352 171.898 11.04C171.898 7.504 170.938 4.32 169.002 2.416V2.08C171.562 3.904 172.938 7.232 172.938 11.04C172.938 14.784 171.386 17.968 168.73 20Z" fill="#202020"/>
<path d="M9.936 4.576H18.976V5.504H14.992V16H13.904V5.504H9.936V4.576ZM19.8346 4.576H20.8426V9.168H20.8746C21.0666 8.66667 21.408 8.26667 21.8986 7.968C22.3893 7.65867 22.928 7.504 23.5146 7.504C24.0906 7.504 24.5706 7.57867 24.9546 7.728C25.3493 7.87733 25.664 8.09067 25.8986 8.368C26.1333 8.63467 26.2986 8.96533 26.3946 9.36C26.4906 9.75467 26.5386 10.1973 26.5386 10.688V16H25.5306V10.848C25.5306 10.496 25.4986 10.1707 25.4346 9.872C25.3706 9.56267 25.2586 9.296 25.0986 9.072C24.9386 8.848 24.72 8.672 24.4426 8.544C24.176 8.416 23.84 8.352 23.4346 8.352C23.0293 8.352 22.6666 8.42667 22.3466 8.576C22.0373 8.71467 21.7706 8.912 21.5466 9.168C21.3333 9.41333 21.1626 9.712 21.0346 10.064C20.9173 10.4053 20.8533 10.7787 20.8426 11.184V16H19.8346V4.576ZM34.3804 11.296C34.3697 10.912 34.3004 10.544 34.1724 10.192C34.055 9.84 33.8844 9.53067 33.6604 9.264C33.4364 8.98667 33.1644 8.768 32.8444 8.608C32.5244 8.43733 32.1617 8.352 31.7564 8.352C31.3404 8.352 30.9724 8.43733 30.6524 8.608C30.3324 8.768 30.0604 8.98667 29.8364 9.264C29.6124 9.53067 29.431 9.84533 29.2924 10.208C29.1644 10.56 29.079 10.9227 29.0364 11.296H34.3804ZM29.0364 12.144C29.0364 12.5067 29.0844 12.8853 29.1804 13.28C29.287 13.664 29.4524 14.0107 29.6764 14.32C29.9004 14.6293 30.183 14.8853 30.5244 15.088C30.8657 15.2907 31.2764 15.392 31.7564 15.392C32.4924 15.392 33.0684 15.2 33.4844 14.816C33.9004 14.432 34.1884 13.92 34.3484 13.28H35.3564C35.143 14.2187 34.7484 14.944 34.1724 15.456C33.607 15.968 32.8017 16.224 31.7564 16.224C31.1057 16.224 30.5404 16.112 30.0604 15.888C29.591 15.6533 29.207 15.3387 28.9084 14.944C28.6097 14.5387 28.3857 14.0747 28.2364 13.552C28.0977 13.0187 28.0284 12.4587 28.0284 11.872C28.0284 11.328 28.0977 10.7947 28.2364 10.272C28.3857 9.74933 28.6097 9.28533 28.9084 8.88C29.207 8.464 29.591 8.13333 30.0604 7.888C30.5404 7.632 31.1057 7.504 31.7564 7.504C32.4177 7.504 32.983 7.63733 33.4524 7.904C33.9217 8.17067 34.3004 8.52267 34.5884 8.96C34.887 9.38667 35.1004 9.88267 35.2284 10.448C35.3564 11.0027 35.4097 11.568 35.3884 12.144H29.0364ZM40.2344 4.576H41.4024L43.9944 14.576H44.0264L46.8104 4.576H48.1704L50.9704 14.576H51.0024L53.6104 4.576H54.6984L51.5464 16H50.3944L47.4984 5.776H47.4664L44.5864 16H43.4024L40.2344 4.576ZM55.0203 10.272C55.0523 9.792 55.1536 9.376 55.3243 9.024C55.4949 8.672 55.7243 8.384 56.0123 8.16C56.3109 7.936 56.6576 7.77067 57.0523 7.664C57.4469 7.55733 57.8843 7.504 58.3643 7.504C58.7269 7.504 59.0896 7.54133 59.4523 7.616C59.8149 7.68 60.1403 7.808 60.4283 8C60.7163 8.192 60.9509 8.464 61.1323 8.816C61.3136 9.15733 61.4043 9.60533 61.4043 10.16V14.544C61.4043 14.9493 61.6016 15.152 61.9963 15.152C62.1136 15.152 62.2203 15.1307 62.3163 15.088V15.936C62.1989 15.9573 62.0923 15.9733 61.9963 15.984C61.9109 15.9947 61.7989 16 61.6603 16C61.4043 16 61.1963 15.968 61.0363 15.904C60.8869 15.8293 60.7696 15.728 60.6843 15.6C60.5989 15.472 60.5403 15.3227 60.5083 15.152C60.4869 14.9707 60.4763 14.7733 60.4763 14.56H60.4443C60.2629 14.8267 60.0763 15.0667 59.8843 15.28C59.7029 15.4827 59.4949 15.6533 59.2603 15.792C59.0363 15.9307 58.7749 16.0373 58.4763 16.112C58.1883 16.1867 57.8416 16.224 57.4363 16.224C57.0523 16.224 56.6896 16.176 56.3483 16.08C56.0176 15.9947 55.7243 15.856 55.4683 15.664C55.2229 15.4613 55.0256 15.2107 54.8763 14.912C54.7376 14.6027 54.6683 14.24 54.6683 13.824C54.6683 13.248 54.7963 12.8 55.0523 12.48C55.3083 12.1493 55.6443 11.8987 56.0603 11.728C56.4869 11.5573 56.9616 11.44 57.4843 11.376C58.0176 11.3013 58.5563 11.232 59.1003 11.168C59.3136 11.1467 59.5003 11.12 59.6603 11.088C59.8203 11.056 59.9536 11.0027 60.0603 10.928C60.1669 10.8427 60.2469 10.7307 60.3003 10.592C60.3643 10.4533 60.3963 10.272 60.3963 10.048C60.3963 9.70667 60.3376 9.42933 60.2203 9.216C60.1136 8.992 59.9589 8.816 59.7563 8.688C59.5643 8.56 59.3349 8.47467 59.0683 8.432C58.8123 8.37867 58.5349 8.352 58.2363 8.352C57.5963 8.352 57.0736 8.50667 56.6683 8.816C56.2629 9.11467 56.0496 9.6 56.0283 10.272H55.0203ZM60.3963 11.488H60.3643C60.3003 11.6053 60.1776 11.6907 59.9963 11.744C59.8149 11.7973 59.6549 11.8347 59.5163 11.856C59.0896 11.9307 58.6469 12 58.1883 12.064C57.7403 12.1173 57.3296 12.2027 56.9563 12.32C56.5829 12.4373 56.2736 12.608 56.0283 12.832C55.7936 13.0453 55.6763 13.3547 55.6763 13.76C55.6763 14.016 55.7243 14.2453 55.8203 14.448C55.9269 14.64 56.0656 14.8107 56.2363 14.96C56.4069 15.0987 56.6043 15.2053 56.8283 15.28C57.0523 15.3547 57.2816 15.392 57.5163 15.392C57.9003 15.392 58.2683 15.3333 58.6203 15.216C58.9723 15.0987 59.2763 14.928 59.5323 14.704C59.7989 14.48 60.0069 14.208 60.1563 13.888C60.3163 13.568 60.3963 13.2053 60.3963 12.8V11.488ZM63.4131 7.744H64.3411V9.68H64.3731C64.6291 9.008 65.0238 8.49067 65.5571 8.128C66.1011 7.76533 66.7465 7.6 67.4931 7.632V8.64C67.0345 8.61867 66.6185 8.68267 66.2451 8.832C65.8718 8.97067 65.5465 9.17333 65.2691 9.44C65.0025 9.70667 64.7945 10.0267 64.6451 10.4C64.4958 10.7627 64.4211 11.1627 64.4211 11.6V16H63.4131V7.744ZM68.46 7.744H69.388V9.136H69.436C69.7027 8.624 70.0493 8.224 70.476 7.936C70.9133 7.648 71.468 7.504 72.14 7.504C72.684 7.504 73.1747 7.63733 73.612 7.904C74.06 8.17067 74.3587 8.576 74.508 9.12C74.7533 8.576 75.116 8.17067 75.596 7.904C76.076 7.63733 76.588 7.504 77.132 7.504C78.956 7.504 79.868 8.46933 79.868 10.4V16H78.86V10.448C78.86 9.76533 78.716 9.248 78.428 8.896C78.14 8.53333 77.6333 8.352 76.908 8.352C76.4707 8.352 76.108 8.43733 75.82 8.608C75.532 8.768 75.3027 8.98667 75.132 9.264C74.9613 9.54133 74.8387 9.86133 74.764 10.224C74.7 10.576 74.668 10.944 74.668 11.328V16H73.66V10.4C73.66 10.1227 73.628 9.86133 73.564 9.616C73.5107 9.36 73.4147 9.14133 73.276 8.96C73.148 8.768 72.972 8.61867 72.748 8.512C72.524 8.40533 72.252 8.352 71.932 8.352C71.5053 8.352 71.132 8.432 70.812 8.592C70.5027 8.74133 70.2467 8.95467 70.044 9.232C69.852 9.49867 69.708 9.81867 69.612 10.192C69.516 10.5547 69.468 10.9547 69.468 11.392V16H68.46V7.744ZM87.7241 11.296C87.7135 10.912 87.6441 10.544 87.5161 10.192C87.3988 9.84 87.2281 9.53067 87.0041 9.264C86.7801 8.98667 86.5081 8.768 86.1881 8.608C85.8681 8.43733 85.5055 8.352 85.1001 8.352C84.6841 8.352 84.3161 8.43733 83.9961 8.608C83.6761 8.768 83.4041 8.98667 83.1801 9.264C82.9561 9.53067 82.7748 9.84533 82.6361 10.208C82.5081 10.56 82.4228 10.9227 82.3801 11.296H87.7241ZM82.3801 12.144C82.3801 12.5067 82.4281 12.8853 82.5241 13.28C82.6308 13.664 82.7961 14.0107 83.0201 14.32C83.2441 14.6293 83.5268 14.8853 83.8681 15.088C84.2095 15.2907 84.6201 15.392 85.1001 15.392C85.8361 15.392 86.4121 15.2 86.8281 14.816C87.2441 14.432 87.5321 13.92 87.6921 13.28H88.7001C88.4868 14.2187 88.0921 14.944 87.5161 15.456C86.9508 15.968 86.1455 16.224 85.1001 16.224C84.4495 16.224 83.8841 16.112 83.4041 15.888C82.9348 15.6533 82.5508 15.3387 82.2521 14.944C81.9535 14.5387 81.7295 14.0747 81.5801 13.552C81.4415 13.0187 81.3721 12.4587 81.3721 11.872C81.3721 11.328 81.4415 10.7947 81.5801 10.272C81.7295 9.74933 81.9535 9.28533 82.2521 8.88C82.5508 8.464 82.9348 8.13333 83.4041 7.888C83.8841 7.632 84.4495 7.504 85.1001 7.504C85.7615 7.504 86.3268 7.63733 86.7961 7.904C87.2655 8.17067 87.6441 8.52267 87.9321 8.96C88.2308 9.38667 88.4441 9.88267 88.5721 10.448C88.7001 11.0027 88.7535 11.568 88.7321 12.144H82.3801ZM95.029 10.16C95.0183 9.85067 94.9543 9.584 94.837 9.36C94.7197 9.12533 94.5597 8.93333 94.357 8.784C94.165 8.63467 93.941 8.528 93.685 8.464C93.429 8.38933 93.157 8.352 92.869 8.352C92.645 8.352 92.4157 8.37867 92.181 8.432C91.957 8.47467 91.749 8.55467 91.557 8.672C91.365 8.77867 91.2103 8.92267 91.093 9.104C90.9757 9.28533 90.917 9.50933 90.917 9.776C90.917 10 90.9703 10.192 91.077 10.352C91.1943 10.5013 91.3383 10.6293 91.509 10.736C91.6797 10.8427 91.8663 10.9333 92.069 11.008C92.2717 11.072 92.4583 11.1253 92.629 11.168L93.973 11.472C94.261 11.5147 94.5437 11.5947 94.821 11.712C95.109 11.8187 95.3597 11.9627 95.573 12.144C95.797 12.3253 95.9783 12.5493 96.117 12.816C96.2557 13.0827 96.325 13.3973 96.325 13.76C96.325 14.208 96.2237 14.592 96.021 14.912C95.8183 15.2213 95.557 15.4773 95.237 15.68C94.9277 15.872 94.5757 16.0107 94.181 16.096C93.7863 16.1813 93.397 16.224 93.013 16.224C92.0423 16.224 91.253 15.9947 90.645 15.536C90.0477 15.0773 89.7063 14.3413 89.621 13.328H90.629C90.6717 14.0107 90.917 14.528 91.365 14.88C91.8237 15.2213 92.389 15.392 93.061 15.392C93.3063 15.392 93.557 15.3653 93.813 15.312C94.0797 15.2587 94.325 15.168 94.549 15.04C94.773 14.912 94.9543 14.752 95.093 14.56C95.2423 14.3573 95.317 14.112 95.317 13.824C95.317 13.5787 95.2637 13.376 95.157 13.216C95.061 13.0453 94.9277 12.9067 94.757 12.8C94.5863 12.6827 94.389 12.5867 94.165 12.512C93.9517 12.4373 93.733 12.3733 93.509 12.32L92.213 12.032C91.8823 11.9467 91.5783 11.8507 91.301 11.744C91.0237 11.6267 90.7783 11.488 90.565 11.328C90.3623 11.1573 90.2023 10.9547 90.085 10.72C89.9677 10.4747 89.909 10.176 89.909 9.824C89.909 9.408 89.9997 9.05067 90.181 8.752C90.373 8.45333 90.6183 8.21333 90.917 8.032C91.2157 7.85067 91.5463 7.71733 91.909 7.632C92.2823 7.54667 92.6503 7.504 93.013 7.504C93.429 7.504 93.813 7.55733 94.165 7.664C94.5277 7.77067 94.8423 7.936 95.109 8.16C95.3863 8.384 95.605 8.66133 95.765 8.992C95.925 9.32267 96.0157 9.712 96.037 10.16H95.029ZM99.3881 7.744H101.068V8.592H99.3881V14.16C99.3881 14.4907 99.4308 14.752 99.5161 14.944C99.6121 15.1253 99.8415 15.2267 100.204 15.248C100.492 15.248 100.78 15.232 101.068 15.2V16.048C100.919 16.048 100.769 16.0533 100.62 16.064C100.471 16.0747 100.321 16.08 100.172 16.08C99.5001 16.08 99.0308 15.952 98.7641 15.696C98.4975 15.4293 98.3695 14.944 98.3801 14.24V8.592H96.9401V7.744H98.3801V5.264H99.3881V7.744ZM108.736 4.576L112.528 14.592L116.464 4.576H118.064V16H116.976V6.128H116.944L113.04 16H112.016L108.256 6.128H108.224V16H107.136V4.576H108.736ZM123.604 8.352C123.124 8.352 122.703 8.45333 122.34 8.656C121.978 8.85867 121.674 9.12533 121.428 9.456C121.194 9.78667 121.012 10.1653 120.884 10.592C120.767 11.008 120.708 11.4347 120.708 11.872C120.708 12.3093 120.767 12.7413 120.884 13.168C121.012 13.584 121.194 13.9573 121.428 14.288C121.674 14.6187 121.978 14.8853 122.34 15.088C122.703 15.2907 123.124 15.392 123.604 15.392C124.084 15.392 124.506 15.2907 124.868 15.088C125.231 14.8853 125.53 14.6187 125.764 14.288C126.01 13.9573 126.191 13.584 126.308 13.168C126.436 12.7413 126.5 12.3093 126.5 11.872C126.5 11.4347 126.436 11.008 126.308 10.592C126.191 10.1653 126.01 9.78667 125.764 9.456C125.53 9.12533 125.231 8.85867 124.868 8.656C124.506 8.45333 124.084 8.352 123.604 8.352ZM123.604 7.504C124.234 7.504 124.788 7.62133 125.268 7.856C125.759 8.09067 126.17 8.40533 126.5 8.8C126.831 9.19467 127.082 9.65867 127.252 10.192C127.423 10.7147 127.508 11.2747 127.508 11.872C127.508 12.4693 127.423 13.0347 127.252 13.568C127.082 14.0907 126.831 14.5493 126.5 14.944C126.17 15.3387 125.759 15.6533 125.268 15.888C124.788 16.112 124.234 16.224 123.604 16.224C122.975 16.224 122.415 16.112 121.924 15.888C121.444 15.6533 121.039 15.3387 120.708 14.944C120.378 14.5493 120.127 14.0907 119.956 13.568C119.786 13.0347 119.7 12.4693 119.7 11.872C119.7 11.2747 119.786 10.7147 119.956 10.192C120.127 9.65867 120.378 9.19467 120.708 8.8C121.039 8.40533 121.444 8.09067 121.924 7.856C122.415 7.62133 122.975 7.504 123.604 7.504ZM129.007 7.744H129.935V9.136H129.983C130.25 8.624 130.596 8.224 131.023 7.936C131.46 7.648 132.015 7.504 132.687 7.504C133.231 7.504 133.722 7.63733 134.159 7.904C134.607 8.17067 134.906 8.576 135.055 9.12C135.3 8.576 135.663 8.17067 136.143 7.904C136.623 7.63733 137.135 7.504 137.679 7.504C139.503 7.504 140.415 8.46933 140.415 10.4V16H139.407V10.448C139.407 9.76533 139.263 9.248 138.975 8.896C138.687 8.53333 138.18 8.352 137.455 8.352C137.018 8.352 136.655 8.43733 136.367 8.608C136.079 8.768 135.85 8.98667 135.679 9.264C135.508 9.54133 135.386 9.86133 135.311 10.224C135.247 10.576 135.215 10.944 135.215 11.328V16H134.207V10.4C134.207 10.1227 134.175 9.86133 134.111 9.616C134.058 9.36 133.962 9.14133 133.823 8.96C133.695 8.768 133.519 8.61867 133.295 8.512C133.071 8.40533 132.799 8.352 132.479 8.352C132.052 8.352 131.679 8.432 131.359 8.592C131.05 8.74133 130.794 8.95467 130.591 9.232C130.399 9.49867 130.255 9.81867 130.159 10.192C130.063 10.5547 130.015 10.9547 130.015 11.392V16H129.007V7.744ZM148.271 11.296C148.26 10.912 148.191 10.544 148.063 10.192C147.946 9.84 147.775 9.53067 147.551 9.264C147.327 8.98667 147.055 8.768 146.735 8.608C146.415 8.43733 146.052 8.352 145.647 8.352C145.231 8.352 144.863 8.43733 144.543 8.608C144.223 8.768 143.951 8.98667 143.727 9.264C143.503 9.53067 143.322 9.84533 143.183 10.208C143.055 10.56 142.97 10.9227 142.927 11.296H148.271ZM142.927 12.144C142.927 12.5067 142.975 12.8853 143.071 13.28C143.178 13.664 143.343 14.0107 143.567 14.32C143.791 14.6293 144.074 14.8853 144.415 15.088C144.756 15.2907 145.167 15.392 145.647 15.392C146.383 15.392 146.959 15.2 147.375 14.816C147.791 14.432 148.079 13.92 148.239 13.28H149.247C149.034 14.2187 148.639 14.944 148.063 15.456C147.498 15.968 146.692 16.224 145.647 16.224C144.996 16.224 144.431 16.112 143.951 15.888C143.482 15.6533 143.098 15.3387 142.799 14.944C142.5 14.5387 142.276 14.0747 142.127 13.552C141.988 13.0187 141.919 12.4587 141.919 11.872C141.919 11.328 141.988 10.7947 142.127 10.272C142.276 9.74933 142.5 9.28533 142.799 8.88C143.098 8.464 143.482 8.13333 143.951 7.888C144.431 7.632 144.996 7.504 145.647 7.504C146.308 7.504 146.874 7.63733 147.343 7.904C147.812 8.17067 148.191 8.52267 148.479 8.96C148.778 9.38667 148.991 9.88267 149.119 10.448C149.247 11.0027 149.3 11.568 149.279 12.144H142.927ZM150.616 7.744H151.624V9.168H151.656C151.848 8.66667 152.189 8.26667 152.68 7.968C153.171 7.65867 153.709 7.504 154.296 7.504C154.872 7.504 155.352 7.57867 155.736 7.728C156.131 7.87733 156.445 8.09067 156.68 8.368C156.915 8.63467 157.08 8.96533 157.176 9.36C157.272 9.75467 157.32 10.1973 157.32 10.688V16H156.312V10.848C156.312 10.496 156.28 10.1707 156.216 9.872C156.152 9.56267 156.04 9.296 155.88 9.072C155.72 8.848 155.501 8.672 155.224 8.544C154.957 8.416 154.621 8.352 154.216 8.352C153.811 8.352 153.448 8.42667 153.128 8.576C152.819 8.71467 152.552 8.912 152.328 9.168C152.115 9.41333 151.944 9.712 151.816 10.064C151.699 10.4053 151.635 10.7787 151.624 11.184V16H150.616V7.744ZM160.826 7.744H162.506V8.592H160.826V14.16C160.826 14.4907 160.868 14.752 160.954 14.944C161.05 15.1253 161.279 15.2267 161.642 15.248C161.93 15.248 162.218 15.232 162.506 15.2V16.048C162.356 16.048 162.207 16.0533 162.058 16.064C161.908 16.0747 161.759 16.08 161.61 16.08C160.938 16.08 160.468 15.952 160.202 15.696C159.935 15.4293 159.807 14.944 159.818 14.24V8.592H158.378V7.744H159.818V5.264H160.826V7.744Z" fill="#202020"/>
</svg>
