<svg width="177" height="304" viewBox="0 0 177 304" fill="none" xmlns="http://www.w3.org/2000/svg">
<path d="M24.384 248.6L24.48 249.56L25.344 257.72L24.144 257.816C23.424 251 22.608 250.28 19.104 250.28H10.944C9.6 250.28 8.88 251 8.88 252.296V266.168H16.176C19.056 266.168 19.728 265.736 19.728 260.696H20.736V273.176H19.728C19.728 268.088 19.056 267.656 16.176 267.656H8.88V282.584C8.88 284.84 9.264 285.32 11.136 285.32H19.104C22.704 285.32 23.76 284.312 25.824 276.968L27.072 277.304L24.576 286.088L24.336 287H0.96V285.992C5.52 285.992 5.952 285.32 5.952 282.392V253.208C5.952 250.28 5.52 249.608 0.96 249.608V248.6H24.384ZM38.2174 273.704L42.8734 282.92C44.2174 285.56 45.2254 285.992 47.3374 285.992V287H38.4574V285.992C41.6734 285.992 41.3854 285.56 39.9934 282.92L36.3934 275.768L33.1294 282.824C31.8814 285.56 31.6414 285.992 34.9054 285.992V287H27.0334V285.992C29.2414 285.992 30.2014 285.56 31.4494 282.824L35.5774 274.088L31.4014 265.832C30.0574 263.192 29.0974 262.76 27.2254 262.76V261.752H35.5294V262.76C32.5534 262.76 32.8894 263.192 34.2814 265.832L37.4014 272.024L40.5214 265.832C41.8654 263.192 42.2494 262.76 39.2254 262.76V261.752H46.4734V262.76C44.5534 262.76 43.5934 263.192 42.2494 265.832L38.2174 273.704ZM53.6951 267.128V282.392C53.6951 285.368 54.0311 285.992 56.7191 285.992V287H47.9351V285.992C50.6711 285.992 51.0551 285.368 51.0551 282.392L51.0071 253.16C51.0071 250.184 51.1031 249.656 48.3191 250.952L47.8871 250.04L51.4871 248.36L53.2151 247.592L53.6951 248.12V265.496H53.8391C55.9031 262.808 57.8231 260.936 60.7031 260.936C64.1111 260.936 65.5031 263.528 65.5031 267.416V282.392C65.5031 285.368 65.8391 285.992 68.6231 285.992V287H59.8871V285.992C62.5751 285.992 62.9111 285.368 62.9111 282.392V267.56C62.9111 264.632 61.6631 263.336 59.7431 263.336C57.4391 263.336 55.5671 264.92 53.6951 267.128ZM74.1221 255.224C72.7781 255.224 71.7701 254.216 71.7701 252.968C71.7701 251.672 72.7781 250.712 74.1221 250.712C75.4181 250.712 76.4261 251.672 76.4261 252.968C76.4261 254.216 75.4181 255.224 74.1221 255.224ZM75.8981 261.464V282.392C75.8981 285.368 76.2341 285.992 79.0661 285.992V287H70.0901V285.992C72.8741 285.992 73.2581 285.368 73.2581 282.392V266.408C73.2581 263.384 73.2581 262.856 70.5701 263.912L70.1861 262.952L73.6901 261.56L75.3221 260.936L75.8981 261.464ZM82.7333 284.6V253.16C82.7333 250.184 82.7813 249.656 80.0453 250.904L79.6133 249.992L84.9413 247.592L85.4213 248.12V265.208H85.6133C87.2933 262.616 89.5013 260.936 92.0453 260.936C96.1253 260.936 98.7653 265.64 98.7653 273.416C98.7653 282.056 95.5493 287.72 89.8853 287.72C87.4373 287.72 84.6533 286.664 82.7333 284.6ZM85.4213 267.176V283.352C86.1893 284.456 87.8213 285.944 89.9813 285.944C93.7253 285.944 95.8853 281.192 95.8853 273.992C95.8853 267.032 93.8213 263.336 90.7013 263.336C88.6373 263.336 86.8133 264.968 85.4213 267.176ZM104.452 255.224C103.108 255.224 102.1 254.216 102.1 252.968C102.1 251.672 103.108 250.712 104.452 250.712C105.748 250.712 106.756 251.672 106.756 252.968C106.756 254.216 105.748 255.224 104.452 255.224ZM106.228 261.464V282.392C106.228 285.368 106.564 285.992 109.396 285.992V287H100.42V285.992C103.204 285.992 103.588 285.368 103.588 282.392V266.408C103.588 263.384 103.588 262.856 100.9 263.912L100.516 262.952L104.02 261.56L105.652 260.936L106.228 261.464ZM122.422 276.776H123.526C123.526 283.784 122.374 287.768 118.246 287.768C114.982 287.768 113.398 285.608 113.398 279.224V263.384H109.942V261.992C113.35 261.944 114.646 259.112 114.838 254.984H116.038V261.752H121.894V263.384H116.086V277.544C116.086 282.2 116.326 285.512 118.966 285.512C121.27 285.512 122.422 282.776 122.422 276.776ZM128.407 255.224C127.063 255.224 126.055 254.216 126.055 252.968C126.055 251.672 127.063 250.712 128.407 250.712C129.703 250.712 130.711 251.672 130.711 252.968C130.711 254.216 129.703 255.224 128.407 255.224ZM130.183 261.464V282.392C130.183 285.368 130.519 285.992 133.351 285.992V287H124.375V285.992C127.159 285.992 127.543 285.368 127.543 282.392V266.408C127.543 263.384 127.543 262.856 124.855 263.912L124.471 262.952L127.975 261.56L129.607 260.936L130.183 261.464ZM143.978 287.768C138.65 287.768 134.954 282.008 134.954 274.472C134.954 267.032 138.218 260.936 143.978 260.936C149.258 260.936 152.954 266.696 152.954 274.232C152.954 281.672 149.69 287.768 143.978 287.768ZM144.602 286.088C148.49 286.088 150.17 281.144 150.17 276.296C150.17 269.768 147.914 262.616 143.354 262.616C139.418 262.616 137.738 267.56 137.738 272.456C137.738 278.984 139.994 286.088 144.602 286.088ZM154.659 287V285.992C157.395 285.992 157.779 285.368 157.779 282.392V266.408C157.779 263.384 157.827 262.856 154.995 264.008L154.611 263.048L159.795 260.936L160.419 261.464V265.496H160.563C162.627 262.808 164.547 260.936 167.427 260.936C170.835 260.936 172.275 263.528 172.275 267.416V282.392C172.275 285.368 172.611 285.992 175.347 285.992V287H166.611V285.992C169.299 285.992 169.635 285.368 169.635 282.392V267.56C169.635 264.68 168.435 263.336 166.467 263.336C164.163 263.336 162.339 264.92 160.419 267.128V282.392C160.419 285.368 160.755 285.992 163.443 285.992V287H154.659Z" fill="#202020"/>
<path d="M65.072 5.36V39.392C65.072 42.368 65.552 42.992 69.344 42.992V44H57.776V42.992C61.808 42.992 62.336 42.368 62.336 39.392V11.264C62.336 7.952 62.336 7.472 57.968 10.208L57.344 9.248L63.056 5.744L64.544 4.784L65.072 5.36ZM78.8308 5.36V39.392C78.8308 42.368 79.3108 42.992 83.1028 42.992V44H71.5347V42.992C75.5668 42.992 76.0947 42.368 76.0947 39.392V11.264C76.0947 7.952 76.0947 7.472 71.7268 10.208L71.1028 9.248L76.8147 5.744L78.3028 4.784L78.8308 5.36ZM96.6215 33.776H97.7255C97.7255 40.784 96.5735 44.768 92.4455 44.768C89.1815 44.768 87.5975 42.608 87.5975 36.224V20.384H84.1415V18.992C87.5495 18.944 88.8455 16.112 89.0375 11.984H90.2375V18.752H96.0935V20.384H90.2855V34.544C90.2855 39.2 90.5255 42.512 93.1655 42.512C95.4695 42.512 96.6215 39.776 96.6215 33.776ZM104.094 24.128V39.392C104.094 42.368 104.43 42.992 107.118 42.992V44H98.3345V42.992C101.07 42.992 101.454 42.368 101.454 39.392L101.406 10.16C101.406 7.184 101.502 6.656 98.7185 7.952L98.2865 7.04L101.886 5.36L103.614 4.592L104.094 5.12V22.496H104.238C106.302 19.808 108.222 17.936 111.102 17.936C114.511 17.936 115.902 20.528 115.902 24.416V39.392C115.902 42.368 116.238 42.992 119.022 42.992V44H110.286V42.992C112.975 42.992 113.311 42.368 113.311 39.392V24.56C113.311 21.632 112.062 20.336 110.142 20.336C107.838 20.336 105.966 21.92 104.094 24.128Z" fill="#202020"/>
<path d="M34.92 86.6V87.608C30.312 87.608 29.88 88.28 29.88 91.208V120.44C29.88 122.84 30.36 123.32 32.376 123.32H39.624C43.224 123.32 44.232 122.312 46.056 114.488L47.304 114.776L45.144 124.136L44.952 125H21.96V123.992C26.52 123.992 26.952 123.32 26.952 120.392V91.208C26.952 88.28 26.52 87.608 21.96 87.608V86.6H34.92ZM51.8546 93.224C50.5106 93.224 49.5026 92.216 49.5026 90.968C49.5026 89.672 50.5106 88.712 51.8546 88.712C53.1506 88.712 54.1586 89.672 54.1586 90.968C54.1586 92.216 53.1506 93.224 51.8546 93.224ZM53.6306 99.464V120.392C53.6306 123.368 53.9666 123.992 56.7986 123.992V125H47.8226V123.992C50.6066 123.992 50.9906 123.368 50.9906 120.392V104.408C50.9906 101.384 50.9906 100.856 48.3026 101.912L47.9186 100.952L51.4226 99.56L53.0546 98.936L53.6306 99.464ZM63.6806 86.12V120.392C63.6806 123.368 63.9686 123.992 66.7046 123.992V125H57.8246V123.992C60.6566 123.992 60.9926 123.368 60.9926 120.392V91.112C60.9926 88.136 61.0406 87.608 58.2566 88.904L57.8246 87.944L61.4726 86.312L63.1526 85.592L63.6806 86.12ZM67.3766 109.64L74.0006 121.016C75.4886 123.608 76.5446 123.992 78.4646 123.992V125H69.4886V123.992C72.7526 123.992 72.3686 123.608 70.8806 121.016L64.7366 110.408L70.1126 103.496C71.8406 101.384 70.8806 100.76 68.3846 100.76V99.752H77.5046V100.76C75.4886 100.76 74.1926 101 72.3686 103.352L67.3766 109.64ZM92.0482 114.872H93.0562C92.2882 122.504 89.1682 125.768 85.3282 125.768C80.3842 125.768 77.5042 120.344 77.5042 112.76C77.5042 105.128 80.4802 98.936 85.5202 98.936C90.1283 98.936 92.7682 103.784 92.7682 110.936H80.2882V111.848C80.2882 118.136 82.4002 123.32 86.1922 123.32C88.4002 123.32 90.9442 121.448 92.0482 114.872ZM85.5682 100.568C82.4482 100.568 80.8162 104.6 80.3842 109.304H89.9362C89.9362 104.936 88.7843 100.568 85.5682 100.568ZM100.151 86.12V120.392C100.151 123.368 100.487 123.992 103.271 123.992V125H94.2953V123.992C97.1273 123.992 97.4633 123.368 97.4633 120.392V91.112C97.4633 88.136 97.5113 87.608 94.7273 88.904L94.2953 87.944L97.9433 86.312L99.6233 85.592L100.151 86.12ZM108.765 93.224C107.421 93.224 106.413 92.216 106.413 90.968C106.413 89.672 107.421 88.712 108.765 88.712C110.061 88.712 111.069 89.672 111.069 90.968C111.069 92.216 110.061 93.224 108.765 93.224ZM110.541 99.464V120.392C110.541 123.368 110.877 123.992 113.709 123.992V125H104.733V123.992C107.517 123.992 107.901 123.368 107.901 120.392V104.408C107.901 101.384 107.901 100.856 105.213 101.912L104.829 100.952L108.333 99.56L109.965 98.936L110.541 99.464ZM124.336 125.768C119.008 125.768 115.312 120.008 115.312 112.472C115.312 105.032 118.576 98.936 124.336 98.936C129.616 98.936 133.312 104.696 133.312 112.232C133.312 119.672 130.048 125.768 124.336 125.768ZM124.96 124.088C128.848 124.088 130.528 119.144 130.528 114.296C130.528 107.768 128.272 100.616 123.712 100.616C119.776 100.616 118.096 105.56 118.096 110.456C118.096 116.984 120.352 124.088 124.96 124.088ZM135.017 125V123.992C137.753 123.992 138.137 123.368 138.137 120.392V104.408C138.137 101.384 138.185 100.856 135.353 102.008L134.969 101.048L140.153 98.936L140.777 99.464V103.496H140.921C142.985 100.808 144.905 98.936 147.785 98.936C151.193 98.936 152.633 101.528 152.633 105.416V120.392C152.633 123.368 152.969 123.992 155.705 123.992V125H146.969V123.992C149.657 123.992 149.993 123.368 149.993 120.392V105.56C149.993 102.68 148.793 101.336 146.825 101.336C144.521 101.336 142.697 102.92 140.777 105.128V120.392C140.777 123.368 141.113 123.992 143.801 123.992V125H135.017Z" fill="#202020"/>
<ellipse cx="51.6667" cy="91" rx="2.66667" ry="6" fill="#F64725"/>
<ellipse cx="108.667" cy="91" rx="2.66667" ry="6" fill="#F64725"/>
<path d="M65.384 167.6L65.48 168.56L66.344 176.72L65.144 176.816C64.424 170 63.608 169.28 60.104 169.28H51.944C50.6 169.28 49.88 170 49.88 171.296V185.168H57.176C60.056 185.168 60.728 184.736 60.728 179.696H61.736V192.176H60.728C60.728 187.088 60.056 186.656 57.176 186.656H49.88V201.584C49.88 203.84 50.264 204.32 52.136 204.32H60.104C63.704 204.32 64.76 203.312 66.824 195.968L68.072 196.304L65.576 205.088L65.336 206H41.96V204.992C46.52 204.992 46.952 204.32 46.952 201.392V172.208C46.952 169.28 46.52 168.608 41.96 168.608V167.6H65.384ZM97.1563 180.752V181.76C95.1403 181.76 94.4203 182.288 93.6523 185.168L87.7003 206.432H86.1643L81.9883 189.584L77.5723 206.432H75.8923L69.9403 185.168C69.1243 182.288 68.4523 181.76 66.2923 181.76V180.752H74.3083V181.76C71.9083 181.76 72.0523 182.288 72.8203 185.168L77.2363 201.296H77.3803L81.2683 186.56L80.9323 185.216C80.2123 182.336 79.5883 181.76 77.7643 181.76V180.752H85.7803V181.76C83.0923 181.76 83.0923 182.336 83.7643 185.216L87.4603 201.296H87.6043L92.0203 185.168C92.8363 182.288 92.8363 181.76 89.6203 181.76V180.752H97.1563ZM101.914 186.128V201.392C101.914 204.368 102.25 204.992 104.938 204.992V206H96.1539V204.992C98.8899 204.992 99.2739 204.368 99.2739 201.392L99.2259 172.16C99.2259 169.184 99.3219 168.656 96.5379 169.952L96.1059 169.04L99.7059 167.36L101.434 166.592L101.914 167.12V184.496H102.058C104.122 181.808 106.042 179.936 108.922 179.936C112.33 179.936 113.722 182.528 113.722 186.416V201.392C113.722 204.368 114.058 204.992 116.842 204.992V206H108.106V204.992C110.794 204.992 111.13 204.368 111.13 201.392V186.56C111.13 183.632 109.882 182.336 107.962 182.336C105.658 182.336 103.786 183.92 101.914 186.128ZM135.695 200.912H136.703C136.655 204.176 135.839 206.768 133.247 206.768C131.087 206.768 129.839 205.04 129.839 201.488V199.568C128.543 204.32 126.095 206.768 122.975 206.768C119.807 206.768 118.079 204.224 118.079 201.2C118.079 195.248 124.559 192.464 129.839 189.92V187.184C129.839 183.008 128.303 181.52 125.759 181.52C123.695 181.52 122.111 182.528 122.111 184.304C122.111 185.456 122.783 185.888 122.783 186.896C122.783 187.904 122.207 188.576 121.151 188.576C119.855 188.576 119.183 187.472 119.183 185.936C119.183 182.576 122.207 179.888 126.239 179.888C129.839 179.888 132.479 182.048 132.479 187.136V201.872C132.479 204.512 133.103 205.088 133.871 205.088C134.879 205.088 135.647 204.128 135.695 200.912ZM123.791 204.32C125.951 204.32 128.351 202.256 129.839 197.024V191.312C125.519 193.616 120.863 195.968 120.863 200.528C120.863 202.688 121.823 204.32 123.791 204.32Z" fill="#202020"/>
<ellipse cx="74.4445" cy="253" rx="2.66667" ry="6" fill="#F64725"/>
<ellipse cx="104.667" cy="253" rx="2.66667" ry="6" fill="#F64725"/>
<ellipse cx="128.667" cy="253" rx="2.66667" ry="6" fill="#F64725"/>
</svg>
