<svg width="81" height="33" viewBox="0 0 81 33" fill="none" xmlns="http://www.w3.org/2000/svg">
<path d="M27.44 19.8V23H17.28C19.3867 21.08 20.92 19.6333 21.88 18.66C22.84 17.6867 23.5867 16.72 24.12 15.76C24.6533 14.8 24.92 13.78 24.92 12.7C24.92 11.54 24.66 10.6333 24.14 9.98C23.62 9.32667 22.84 9 21.8 9C21.1467 9 20.6267 9.11333 20.24 9.34C19.8533 9.56667 19.58 9.84 19.42 10.16C19.26 10.4667 19.18 10.76 19.18 11.04C19.18 11.56 19.3333 11.9333 19.64 12.16C19.9467 12.3733 20.2933 12.48 20.68 12.48C20.8267 12.48 20.9267 12.4733 20.98 12.46C20.98 12.6733 20.92 12.9267 20.8 13.22C20.6933 13.5 20.5133 13.7467 20.26 13.96C20.0067 14.1733 19.6867 14.28 19.3 14.28C18.6867 14.28 18.1933 14.0733 17.82 13.66C17.4467 13.2467 17.26 12.7067 17.26 12.04C17.26 11.5733 17.4067 11.08 17.7 10.56C17.9933 10.0267 18.4933 9.56667 19.2 9.18C19.9067 8.79333 20.84 8.6 22 8.6C22.9467 8.6 23.8133 8.77333 24.6 9.12C25.4 9.45333 26.0333 9.93333 26.5 10.56C26.9667 11.1733 27.2 11.8867 27.2 12.7C27.2 13.4733 26.8933 14.3 26.28 15.18C25.68 16.06 24.98 16.8867 24.18 17.66C23.38 18.4333 22.38 19.3333 21.18 20.36C20.4733 20.9467 19.96 21.3933 19.64 21.7H25.78C26.02 21.7 26.2333 21.6333 26.42 21.5C26.62 21.3533 26.7467 21.16 26.8 20.92L27.08 19.8H27.44ZM40.3263 16C40.3263 17.3333 40.0863 18.56 39.6063 19.68C39.1396 20.7867 38.4729 21.6667 37.6063 22.32C36.7529 22.9733 35.7663 23.3 34.6463 23.3C33.5263 23.3 32.5329 22.9733 31.6663 22.32C30.7996 21.6533 30.1329 20.7667 29.6663 19.66C29.1996 18.54 28.9663 17.32 28.9663 16C28.9663 14.6667 29.1996 13.4467 29.6663 12.34C30.1463 11.22 30.8129 10.3333 31.6663 9.68C32.5329 9.02667 33.5263 8.7 34.6463 8.7C35.7663 8.7 36.7596 9.03333 37.6263 9.7C38.4929 10.3533 39.1596 11.24 39.6263 12.36C40.0929 13.4667 40.3263 14.68 40.3263 16ZM38.0463 16C38.0463 14.8267 37.9196 13.7067 37.6663 12.64C37.4129 11.56 37.0263 10.6867 36.5063 10.02C35.9996 9.34 35.3796 9 34.6463 9C33.9129 9 33.2863 9.34667 32.7663 10.04C32.2596 10.72 31.8796 11.6 31.6263 12.68C31.3729 13.7467 31.2463 14.8533 31.2463 16C31.2463 17.1733 31.3729 18.3 31.6263 19.38C31.8796 20.4467 32.2596 21.32 32.7663 22C33.2863 22.6667 33.9129 23 34.6463 23C35.3796 23 35.9996 22.66 36.5063 21.98C37.0263 21.2867 37.4129 20.4067 37.6663 19.34C37.9196 18.26 38.0463 17.1467 38.0463 16ZM51.3267 19.8V23H41.1667C43.2734 21.08 44.8067 19.6333 45.7667 18.66C46.7267 17.6867 47.4734 16.72 48.0067 15.76C48.5401 14.8 48.8067 13.78 48.8067 12.7C48.8067 11.54 48.5467 10.6333 48.0267 9.98C47.5067 9.32667 46.7267 9 45.6867 9C45.0334 9 44.5134 9.11333 44.1267 9.34C43.7401 9.56667 43.4667 9.84 43.3067 10.16C43.1467 10.4667 43.0667 10.76 43.0667 11.04C43.0667 11.56 43.2201 11.9333 43.5267 12.16C43.8334 12.3733 44.1801 12.48 44.5667 12.48C44.7134 12.48 44.8134 12.4733 44.8667 12.46C44.8667 12.6733 44.8067 12.9267 44.6867 13.22C44.5801 13.5 44.4001 13.7467 44.1467 13.96C43.8934 14.1733 43.5734 14.28 43.1867 14.28C42.5734 14.28 42.0801 14.0733 41.7067 13.66C41.3334 13.2467 41.1467 12.7067 41.1467 12.04C41.1467 11.5733 41.2934 11.08 41.5867 10.56C41.8801 10.0267 42.3801 9.56667 43.0867 9.18C43.7934 8.79333 44.7267 8.6 45.8867 8.6C46.8334 8.6 47.7001 8.77333 48.4867 9.12C49.2867 9.45333 49.9201 9.93333 50.3867 10.56C50.8534 11.1733 51.0867 11.8867 51.0867 12.7C51.0867 13.4733 50.7801 14.3 50.1667 15.18C49.5667 16.06 48.8667 16.8867 48.0667 17.66C47.2667 18.4333 46.2667 19.3333 45.0667 20.36C44.3601 20.9467 43.8467 21.3933 43.5267 21.7H49.6667C49.9067 21.7 50.1201 21.6333 50.3067 21.5C50.5067 21.3533 50.6334 21.16 50.6867 20.92L50.9667 19.8H51.3267ZM58.533 15.2C59.853 15.36 60.9196 15.7867 61.733 16.48C62.5596 17.16 62.973 18.0667 62.973 19.2C62.973 20.04 62.733 20.7733 62.253 21.4C61.773 22.0133 61.1196 22.4867 60.293 22.82C59.4796 23.14 58.5796 23.3 57.593 23.3C56.5263 23.3 55.6196 23.1267 54.873 22.78C54.1396 22.4333 53.593 21.98 53.233 21.42C52.873 20.86 52.693 20.2733 52.693 19.66C52.693 18.98 52.8796 18.4067 53.253 17.94C53.6263 17.46 54.113 17.22 54.713 17.22C55.0996 17.22 55.4196 17.3267 55.673 17.54C55.9263 17.7533 56.1063 18.0067 56.213 18.3C56.333 18.58 56.393 18.8267 56.393 19.04C56.3263 19.0133 56.2263 19 56.093 19C55.7463 19 55.4396 19.1867 55.173 19.56C54.9196 19.92 54.793 20.2867 54.793 20.66C54.793 21.0333 54.893 21.3933 55.093 21.74C55.3063 22.0867 55.6063 22.3667 55.993 22.58C56.393 22.7933 56.8663 22.9 57.413 22.9C58.5196 22.9 59.3396 22.6067 59.873 22.02C60.4196 21.4333 60.693 20.4933 60.693 19.2C60.693 17.8933 60.3996 16.9333 59.813 16.32C59.2263 15.7067 58.3996 15.4 57.333 15.4H56.373V15H57.333C58.213 15 58.893 14.7533 59.373 14.26C59.853 13.7667 60.093 13.0133 60.093 12C60.093 11.08 59.8663 10.3533 59.413 9.82C58.9596 9.27333 58.3463 9 57.573 9C57.0396 9 56.593 9.1 56.233 9.3C55.8863 9.48667 55.6263 9.71333 55.453 9.98C55.293 10.2467 55.213 10.4867 55.213 10.7C55.213 11.14 55.3396 11.4533 55.593 11.64C55.8463 11.8133 56.133 11.9 56.453 11.9C56.573 11.9 56.653 11.8933 56.693 11.88C56.693 12.0533 56.6463 12.26 56.553 12.5C56.4596 12.7267 56.3063 12.9333 56.093 13.12C55.893 13.2933 55.633 13.38 55.313 13.38C54.8196 13.38 54.413 13.2133 54.093 12.88C53.7863 12.5333 53.633 12.0867 53.633 11.54C53.633 11.1533 53.753 10.7467 53.993 10.32C54.233 9.88 54.6463 9.5 55.233 9.18C55.8196 8.86 56.5863 8.7 57.533 8.7C58.8663 8.7 59.9663 8.99333 60.833 9.58C61.6996 10.1533 62.133 10.96 62.133 12C62.133 13.16 61.533 14.0533 60.333 14.68C59.853 14.92 59.253 15.0933 58.533 15.2Z" fill="#202020"/>
<ellipse cx="40.5" cy="16.5" rx="39.5" ry="15.5" stroke="#202020" stroke-width="0.5"/>
</svg>
