<svg width="117" height="527" viewBox="0 0 117 527" fill="none" xmlns="http://www.w3.org/2000/svg">
<path d="M1.92 69.54C1.89333 70.1 1.95333 70.6067 2.1 71.06C2.26 71.5133 2.48667 71.9 2.78 72.22C3.08667 72.54 3.46 72.7933 3.9 72.98C4.35333 73.1533 4.86 73.24 5.42 73.24C5.88667 73.24 6.33333 73.1733 6.76 73.04C7.18667 72.9067 7.56667 72.7067 7.9 72.44C8.23333 72.1733 8.5 71.8467 8.7 71.46C8.9 71.0733 9 70.6333 9 70.14C9 69.6333 8.91333 69.2 8.74 68.84C8.56667 68.4667 8.32667 68.16 8.02 67.92C7.71333 67.6667 7.35333 67.48 6.94 67.36C6.54 67.24 6.10667 67.18 5.64 67.18H4.58V66.12H5.64C5.96 66.12 6.28667 66.0733 6.62 65.98C6.96667 65.8733 7.27333 65.72 7.54 65.52C7.82 65.3067 8.04667 65.04 8.22 64.72C8.39333 64.4 8.48 64.02 8.48 63.58C8.48 63.1133 8.4 62.72 8.24 62.4C8.08 62.0667 7.86 61.7933 7.58 61.58C7.3 61.3533 6.97333 61.1933 6.6 61.1C6.24 60.9933 5.84667 60.94 5.42 60.94C4.9 60.94 4.44 61.0267 4.04 61.2C3.64 61.3733 3.3 61.62 3.02 61.94C2.75333 62.2467 2.55333 62.62 2.42 63.06C2.28667 63.4867 2.22667 63.96 2.24 64.48H0.98C0.98 63.8133 1.08 63.2 1.28 62.64C1.49333 62.08 1.78667 61.6 2.16 61.2C2.54667 60.7867 3.01333 60.4667 3.56 60.24C4.10667 60 4.72 59.88 5.4 59.88C5.94667 59.88 6.48 59.9533 7 60.1C7.52 60.2333 7.98 60.4467 8.38 60.74C8.79333 61.02 9.12 61.3867 9.36 61.84C9.61333 62.28 9.74 62.8133 9.74 63.44C9.74 64.2 9.53333 64.86 9.12 65.42C8.72 65.98 8.14 66.3533 7.38 66.54V66.58C8.3 66.7267 9.00667 67.1133 9.5 67.74C10.0067 68.3533 10.26 69.12 10.26 70.04C10.26 70.7333 10.1267 71.3467 9.86 71.88C9.60667 72.4 9.26 72.84 8.82 73.2C8.38 73.56 7.86667 73.8267 7.28 74C6.69333 74.1867 6.08 74.28 5.44 74.28C4.72 74.28 4.05333 74.1733 3.44 73.96C2.84 73.7467 2.32 73.44 1.88 73.04C1.45333 72.64 1.12667 72.1467 0.9 71.56C0.686667 70.9733 0.606667 70.3 0.66 69.54H1.92ZM13.0533 74V71.88H14.7333V74H13.0533Z" fill="#202020"/>
<path d="M19 113L39 26H67H95L112 113L95 183.5L112 274.5L99 348.5L116 433L99 526.5H45.5L19 433L39 348.5L19 274.5L39 183.5L19 113Z" fill="#00C40F"/>
<path d="M67 26H95L112 113L95 183.5L112 274.5L99 348.5L116 433L99 526.5H45.5L19 433L39 348.5L19 274.5L39 183.5L19 113L39 26H67ZM67 26V0.5" stroke="#202020"/>
<path d="M38.3858 73.744H39.4578L41.5698 80.816H41.6018L43.6178 73.744H44.7538L46.7698 80.816H46.8018L48.9138 73.744H49.9858L47.3298 82H46.2258L44.1938 75.056H44.1618L42.1458 82H41.0418L38.3858 73.744ZM51.0612 70.576H52.0692V75.168H52.1012C52.2932 74.6667 52.6345 74.2667 53.1252 73.968C53.6159 73.6587 54.1545 73.504 54.7412 73.504C55.3172 73.504 55.7972 73.5787 56.1812 73.728C56.5759 73.8773 56.8905 74.0907 57.1252 74.368C57.3599 74.6347 57.5252 74.9653 57.6212 75.36C57.7172 75.7547 57.7652 76.1973 57.7652 76.688V82H56.7572V76.848C56.7572 76.496 56.7252 76.1707 56.6612 75.872C56.5972 75.5627 56.4852 75.296 56.3252 75.072C56.1652 74.848 55.9465 74.672 55.6692 74.544C55.4025 74.416 55.0665 74.352 54.6612 74.352C54.2559 74.352 53.8932 74.4267 53.5732 74.576C53.2639 74.7147 52.9972 74.912 52.7732 75.168C52.5599 75.4133 52.3892 75.712 52.2612 76.064C52.1439 76.4053 52.0799 76.7787 52.0692 77.184V82H51.0612V70.576ZM59.5749 76.272C59.6069 75.792 59.7083 75.376 59.8789 75.024C60.0496 74.672 60.2789 74.384 60.5669 74.16C60.8656 73.936 61.2123 73.7707 61.6069 73.664C62.0016 73.5573 62.4389 73.504 62.9189 73.504C63.2816 73.504 63.6443 73.5413 64.0069 73.616C64.3696 73.68 64.6949 73.808 64.9829 74C65.2709 74.192 65.5056 74.464 65.6869 74.816C65.8683 75.1573 65.9589 75.6053 65.9589 76.16V80.544C65.9589 80.9493 66.1563 81.152 66.5509 81.152C66.6683 81.152 66.7749 81.1307 66.8709 81.088V81.936C66.7536 81.9573 66.6469 81.9733 66.5509 81.984C66.4656 81.9947 66.3536 82 66.2149 82C65.9589 82 65.7509 81.968 65.5909 81.904C65.4416 81.8293 65.3243 81.728 65.2389 81.6C65.1536 81.472 65.0949 81.3227 65.0629 81.152C65.0416 80.9707 65.0309 80.7733 65.0309 80.56H64.9989C64.8176 80.8267 64.6309 81.0667 64.4389 81.28C64.2576 81.4827 64.0496 81.6533 63.8149 81.792C63.5909 81.9307 63.3296 82.0373 63.0309 82.112C62.7429 82.1867 62.3963 82.224 61.9909 82.224C61.6069 82.224 61.2443 82.176 60.9029 82.08C60.5723 81.9947 60.2789 81.856 60.0229 81.664C59.7776 81.4613 59.5803 81.2107 59.4309 80.912C59.2923 80.6027 59.2229 80.24 59.2229 79.824C59.2229 79.248 59.3509 78.8 59.6069 78.48C59.8629 78.1493 60.1989 77.8987 60.6149 77.728C61.0416 77.5573 61.5163 77.44 62.0389 77.376C62.5723 77.3013 63.1109 77.232 63.6549 77.168C63.8683 77.1467 64.0549 77.12 64.2149 77.088C64.3749 77.056 64.5083 77.0027 64.6149 76.928C64.7216 76.8427 64.8016 76.7307 64.8549 76.592C64.9189 76.4533 64.9509 76.272 64.9509 76.048C64.9509 75.7067 64.8923 75.4293 64.7749 75.216C64.6683 74.992 64.5136 74.816 64.3109 74.688C64.1189 74.56 63.8896 74.4747 63.6229 74.432C63.3669 74.3787 63.0896 74.352 62.7909 74.352C62.1509 74.352 61.6283 74.5067 61.2229 74.816C60.8176 75.1147 60.6043 75.6 60.5829 76.272H59.5749ZM64.9509 77.488H64.9189C64.8549 77.6053 64.7323 77.6907 64.5509 77.744C64.3696 77.7973 64.2096 77.8347 64.0709 77.856C63.6443 77.9307 63.2016 78 62.7429 78.064C62.2949 78.1173 61.8843 78.2027 61.5109 78.32C61.1376 78.4373 60.8283 78.608 60.5829 78.832C60.3483 79.0453 60.2309 79.3547 60.2309 79.76C60.2309 80.016 60.2789 80.2453 60.3749 80.448C60.4816 80.64 60.6203 80.8107 60.7909 80.96C60.9616 81.0987 61.1589 81.2053 61.3829 81.28C61.6069 81.3547 61.8363 81.392 62.0709 81.392C62.4549 81.392 62.8229 81.3333 63.1749 81.216C63.5269 81.0987 63.8309 80.928 64.0869 80.704C64.3536 80.48 64.5616 80.208 64.7109 79.888C64.8709 79.568 64.9509 79.2053 64.9509 78.8V77.488ZM69.5678 73.744H71.2478V74.592H69.5678V80.16C69.5678 80.4907 69.6105 80.752 69.6958 80.944C69.7918 81.1253 70.0211 81.2267 70.3838 81.248C70.6718 81.248 70.9598 81.232 71.2478 81.2V82.048C71.0985 82.048 70.9491 82.0533 70.7998 82.064C70.6505 82.0747 70.5011 82.08 70.3518 82.08C69.6798 82.08 69.2105 81.952 68.9438 81.696C68.6771 81.4293 68.5491 80.944 68.5598 80.24V74.592H67.1198V73.744H68.5598V71.264H69.5678V73.744Z" fill="#202020"/>
<path d="M81.6849 168H80.7569V166.432H80.7249C80.6183 166.699 80.4583 166.944 80.2449 167.168C80.0423 167.392 79.8076 167.584 79.5409 167.744C79.2743 167.893 78.9863 168.011 78.6769 168.096C78.3783 168.181 78.0796 168.224 77.7809 168.224C77.1516 168.224 76.6023 168.112 76.1329 167.888C75.6743 167.653 75.2903 167.339 74.9809 166.944C74.6716 166.539 74.4423 166.075 74.2929 165.552C74.1436 165.019 74.0689 164.459 74.0689 163.872C74.0689 163.285 74.1436 162.731 74.2929 162.208C74.4423 161.675 74.6716 161.211 74.9809 160.816C75.2903 160.411 75.6743 160.091 76.1329 159.856C76.6023 159.621 77.1516 159.504 77.7809 159.504C78.0903 159.504 78.3889 159.541 78.6769 159.616C78.9756 159.691 79.2529 159.808 79.5089 159.968C79.7649 160.117 79.9889 160.304 80.1809 160.528C80.3836 160.752 80.5383 161.013 80.6449 161.312H80.6769V156.576H81.6849V168ZM75.0769 163.872C75.0769 164.299 75.1249 164.725 75.2209 165.152C75.3276 165.568 75.4876 165.941 75.7009 166.272C75.9249 166.603 76.2076 166.875 76.5489 167.088C76.8903 167.291 77.3009 167.392 77.7809 167.392C78.3143 167.392 78.7623 167.291 79.1249 167.088C79.4983 166.875 79.7969 166.603 80.0209 166.272C80.2556 165.941 80.4209 165.568 80.5169 165.152C80.6236 164.725 80.6769 164.299 80.6769 163.872C80.6769 163.445 80.6236 163.024 80.5169 162.608C80.4209 162.181 80.2556 161.803 80.0209 161.472C79.7969 161.141 79.4983 160.875 79.1249 160.672C78.7623 160.459 78.3143 160.352 77.7809 160.352C77.3009 160.352 76.8903 160.459 76.5489 160.672C76.2076 160.875 75.9249 161.141 75.7009 161.472C75.4876 161.803 75.3276 162.181 75.2209 162.608C75.1249 163.024 75.0769 163.445 75.0769 163.872ZM87.0964 160.352C86.6164 160.352 86.1951 160.453 85.8324 160.656C85.4698 160.859 85.1658 161.125 84.9204 161.456C84.6858 161.787 84.5044 162.165 84.3764 162.592C84.2591 163.008 84.2004 163.435 84.2004 163.872C84.2004 164.309 84.2591 164.741 84.3764 165.168C84.5044 165.584 84.6858 165.957 84.9204 166.288C85.1658 166.619 85.4698 166.885 85.8324 167.088C86.1951 167.291 86.6164 167.392 87.0964 167.392C87.5764 167.392 87.9978 167.291 88.3604 167.088C88.7231 166.885 89.0218 166.619 89.2564 166.288C89.5018 165.957 89.6831 165.584 89.8004 165.168C89.9284 164.741 89.9924 164.309 89.9924 163.872C89.9924 163.435 89.9284 163.008 89.8004 162.592C89.6831 162.165 89.5018 161.787 89.2564 161.456C89.0218 161.125 88.7231 160.859 88.3604 160.656C87.9978 160.453 87.5764 160.352 87.0964 160.352ZM87.0964 159.504C87.7258 159.504 88.2804 159.621 88.7604 159.856C89.2511 160.091 89.6618 160.405 89.9924 160.8C90.3231 161.195 90.5738 161.659 90.7444 162.192C90.9151 162.715 91.0004 163.275 91.0004 163.872C91.0004 164.469 90.9151 165.035 90.7444 165.568C90.5738 166.091 90.3231 166.549 89.9924 166.944C89.6618 167.339 89.2511 167.653 88.7604 167.888C88.2804 168.112 87.7258 168.224 87.0964 168.224C86.4671 168.224 85.9071 168.112 85.4164 167.888C84.9364 167.653 84.5311 167.339 84.2004 166.944C83.8698 166.549 83.6191 166.091 83.4484 165.568C83.2778 165.035 83.1924 164.469 83.1924 163.872C83.1924 163.275 83.2778 162.715 83.4484 162.192C83.6191 161.659 83.8698 161.195 84.2004 160.8C84.5311 160.405 84.9364 160.091 85.4164 159.856C85.9071 159.621 86.4671 159.504 87.0964 159.504Z" fill="#202020"/>
<path d="M36.0867 244.744H37.1587L39.8787 251.784L42.4227 244.744H43.4307L39.8467 254.248C39.6974 254.6 39.5587 254.888 39.4307 255.112C39.3027 255.347 39.1587 255.528 38.9987 255.656C38.8494 255.795 38.668 255.891 38.4547 255.944C38.252 256.008 37.9907 256.04 37.6707 256.04C37.468 256.029 37.308 256.019 37.1907 256.008C37.084 256.008 36.988 255.992 36.9027 255.96V255.112C37.02 255.133 37.132 255.149 37.2387 255.16C37.356 255.181 37.4734 255.192 37.5907 255.192C37.8147 255.192 37.996 255.16 38.1347 255.096C38.284 255.032 38.412 254.941 38.5187 254.824C38.6254 254.717 38.716 254.584 38.7907 254.424C38.8654 254.264 38.9454 254.088 39.0307 253.896L39.3827 252.968L36.0867 244.744ZM47.9089 245.352C47.4289 245.352 47.0076 245.453 46.6449 245.656C46.2823 245.859 45.9783 246.125 45.7329 246.456C45.4983 246.787 45.3169 247.165 45.1889 247.592C45.0716 248.008 45.0129 248.435 45.0129 248.872C45.0129 249.309 45.0716 249.741 45.1889 250.168C45.3169 250.584 45.4983 250.957 45.7329 251.288C45.9783 251.619 46.2823 251.885 46.6449 252.088C47.0076 252.291 47.4289 252.392 47.9089 252.392C48.3889 252.392 48.8103 252.291 49.1729 252.088C49.5356 251.885 49.8343 251.619 50.0689 251.288C50.3143 250.957 50.4956 250.584 50.6129 250.168C50.7409 249.741 50.8049 249.309 50.8049 248.872C50.8049 248.435 50.7409 248.008 50.6129 247.592C50.4956 247.165 50.3143 246.787 50.0689 246.456C49.8343 246.125 49.5356 245.859 49.1729 245.656C48.8103 245.453 48.3889 245.352 47.9089 245.352ZM47.9089 244.504C48.5383 244.504 49.0929 244.621 49.5729 244.856C50.0636 245.091 50.4743 245.405 50.8049 245.8C51.1356 246.195 51.3863 246.659 51.5569 247.192C51.7276 247.715 51.8129 248.275 51.8129 248.872C51.8129 249.469 51.7276 250.035 51.5569 250.568C51.3863 251.091 51.1356 251.549 50.8049 251.944C50.4743 252.339 50.0636 252.653 49.5729 252.888C49.0929 253.112 48.5383 253.224 47.9089 253.224C47.2796 253.224 46.7196 253.112 46.2289 252.888C45.7489 252.653 45.3436 252.339 45.0129 251.944C44.6823 251.549 44.4316 251.091 44.2609 250.568C44.0903 250.035 44.0049 249.469 44.0049 248.872C44.0049 248.275 44.0903 247.715 44.2609 247.192C44.4316 246.659 44.6823 246.195 45.0129 245.8C45.3436 245.405 45.7489 245.091 46.2289 244.856C46.7196 244.621 47.2796 244.504 47.9089 244.504ZM59.9996 253H59.0716V251.512H59.0396C58.7729 252.067 58.3836 252.493 57.8716 252.792C57.3702 253.08 56.8102 253.224 56.1916 253.224C55.6689 253.224 55.2209 253.149 54.8476 253C54.4849 252.861 54.1862 252.659 53.9516 252.392C53.7276 252.125 53.5622 251.8 53.4556 251.416C53.3489 251.032 53.2956 250.595 53.2956 250.104V244.744H54.3036V250.12C54.3249 250.867 54.4956 251.432 54.8156 251.816C55.1462 252.2 55.7116 252.392 56.5116 252.392C56.9489 252.392 57.3222 252.301 57.6316 252.12C57.9409 251.928 58.1969 251.677 58.3996 251.368C58.6022 251.059 58.7516 250.707 58.8476 250.312C58.9436 249.907 58.9916 249.496 58.9916 249.08V244.744H59.9996V253Z" fill="#202020"/>
<path d="M75.3337 307.16C75.323 306.851 75.259 306.584 75.1417 306.36C75.0244 306.125 74.8644 305.933 74.6617 305.784C74.4697 305.635 74.2457 305.528 73.9897 305.464C73.7337 305.389 73.4617 305.352 73.1737 305.352C72.9497 305.352 72.7204 305.379 72.4857 305.432C72.2617 305.475 72.0537 305.555 71.8617 305.672C71.6697 305.779 71.515 305.923 71.3977 306.104C71.2804 306.285 71.2217 306.509 71.2217 306.776C71.2217 307 71.275 307.192 71.3817 307.352C71.499 307.501 71.643 307.629 71.8137 307.736C71.9844 307.843 72.171 307.933 72.3737 308.008C72.5764 308.072 72.763 308.125 72.9337 308.168L74.2777 308.472C74.5657 308.515 74.8484 308.595 75.1257 308.712C75.4137 308.819 75.6644 308.963 75.8777 309.144C76.1017 309.325 76.283 309.549 76.4217 309.816C76.5604 310.083 76.6297 310.397 76.6297 310.76C76.6297 311.208 76.5284 311.592 76.3257 311.912C76.123 312.221 75.8617 312.477 75.5417 312.68C75.2324 312.872 74.8804 313.011 74.4857 313.096C74.091 313.181 73.7017 313.224 73.3177 313.224C72.347 313.224 71.5577 312.995 70.9497 312.536C70.3524 312.077 70.011 311.341 69.9257 310.328H70.9337C70.9764 311.011 71.2217 311.528 71.6697 311.88C72.1284 312.221 72.6937 312.392 73.3657 312.392C73.611 312.392 73.8617 312.365 74.1177 312.312C74.3844 312.259 74.6297 312.168 74.8537 312.04C75.0777 311.912 75.259 311.752 75.3977 311.56C75.547 311.357 75.6217 311.112 75.6217 310.824C75.6217 310.579 75.5684 310.376 75.4617 310.216C75.3657 310.045 75.2324 309.907 75.0617 309.8C74.891 309.683 74.6937 309.587 74.4697 309.512C74.2564 309.437 74.0377 309.373 73.8137 309.32L72.5177 309.032C72.187 308.947 71.883 308.851 71.6057 308.744C71.3284 308.627 71.083 308.488 70.8697 308.328C70.667 308.157 70.507 307.955 70.3897 307.72C70.2724 307.475 70.2137 307.176 70.2137 306.824C70.2137 306.408 70.3044 306.051 70.4857 305.752C70.6777 305.453 70.923 305.213 71.2217 305.032C71.5204 304.851 71.851 304.717 72.2137 304.632C72.587 304.547 72.955 304.504 73.3177 304.504C73.7337 304.504 74.1177 304.557 74.4697 304.664C74.8324 304.771 75.147 304.936 75.4137 305.16C75.691 305.384 75.9097 305.661 76.0697 305.992C76.2297 306.323 76.3204 306.712 76.3417 307.16H75.3337ZM78.1088 301.576H79.1168V303.192H78.1088V301.576ZM78.1088 304.744H79.1168V313H78.1088V304.744ZM81.0299 304.744H82.0379V306.168H82.0699C82.2619 305.667 82.6033 305.267 83.0939 304.968C83.5846 304.659 84.1233 304.504 84.7099 304.504C85.2859 304.504 85.7659 304.579 86.1499 304.728C86.5446 304.877 86.8593 305.091 87.0939 305.368C87.3286 305.635 87.4939 305.965 87.5899 306.36C87.6859 306.755 87.7339 307.197 87.7339 307.688V313H86.7259V307.848C86.7259 307.496 86.6939 307.171 86.6299 306.872C86.5659 306.563 86.4539 306.296 86.2939 306.072C86.1339 305.848 85.9153 305.672 85.6379 305.544C85.3713 305.416 85.0353 305.352 84.6299 305.352C84.2246 305.352 83.8619 305.427 83.5419 305.576C83.2326 305.715 82.9659 305.912 82.7419 306.168C82.5286 306.413 82.3579 306.712 82.2299 307.064C82.1126 307.405 82.0486 307.779 82.0379 308.184V313H81.0299V304.744ZM96.6157 312.328C96.6157 312.936 96.5464 313.485 96.4077 313.976C96.2797 314.467 96.0717 314.883 95.7837 315.224C95.4957 315.565 95.117 315.827 94.6477 316.008C94.189 316.189 93.6237 316.28 92.9517 316.28C92.5357 316.28 92.1304 316.232 91.7357 316.136C91.341 316.04 90.9837 315.891 90.6637 315.688C90.3544 315.485 90.093 315.224 89.8797 314.904C89.677 314.595 89.5597 314.221 89.5277 313.784H90.5357C90.589 314.093 90.6904 314.349 90.8397 314.552C90.9997 314.765 91.1864 314.936 91.3997 315.064C91.6237 315.192 91.869 315.283 92.1357 315.336C92.4024 315.4 92.6744 315.432 92.9517 315.432C93.8904 315.432 94.5677 315.165 94.9837 314.632C95.3997 314.099 95.6077 313.331 95.6077 312.328V311.208H95.5757C95.341 311.72 94.9944 312.131 94.5357 312.44C94.0877 312.749 93.5597 312.904 92.9517 312.904C92.2904 312.904 91.725 312.797 91.2557 312.584C90.7864 312.36 90.397 312.056 90.0877 311.672C89.789 311.288 89.5704 310.84 89.4317 310.328C89.293 309.805 89.2237 309.251 89.2237 308.664C89.2237 308.099 89.3037 307.565 89.4637 307.064C89.6344 306.552 89.8744 306.109 90.1837 305.736C90.5037 305.352 90.893 305.053 91.3517 304.84C91.821 304.616 92.3544 304.504 92.9517 304.504C93.261 304.504 93.549 304.547 93.8157 304.632C94.093 304.717 94.3437 304.84 94.5677 305C94.7917 305.149 94.989 305.325 95.1597 305.528C95.341 305.731 95.4797 305.944 95.5757 306.168H95.6077V304.744H96.6157V312.328ZM92.9517 312.056C93.389 312.056 93.773 311.965 94.1037 311.784C94.4344 311.592 94.7117 311.347 94.9357 311.048C95.1597 310.739 95.325 310.387 95.4317 309.992C95.549 309.597 95.6077 309.192 95.6077 308.776C95.6077 308.371 95.5597 307.965 95.4637 307.56C95.3677 307.155 95.213 306.787 94.9997 306.456C94.7864 306.125 94.509 305.859 94.1677 305.656C93.837 305.453 93.4317 305.352 92.9517 305.352C92.4717 305.352 92.061 305.453 91.7197 305.656C91.3784 305.848 91.0957 306.104 90.8717 306.424C90.6477 306.744 90.4824 307.112 90.3757 307.528C90.2797 307.933 90.2317 308.349 90.2317 308.776C90.2317 309.192 90.285 309.597 90.3917 309.992C90.4984 310.387 90.6637 310.739 90.8877 311.048C91.1117 311.347 91.3944 311.592 91.7357 311.784C92.077 311.965 92.4824 312.056 92.9517 312.056Z" fill="#202020"/>
</svg>
