<svg width="117" height="527" viewBox="0 0 117 527" fill="none" xmlns="http://www.w3.org/2000/svg">
<path d="M1.92 69.54C1.89333 70.1 1.95333 70.6067 2.1 71.06C2.26 71.5133 2.48667 71.9 2.78 72.22C3.08667 72.54 3.46 72.7933 3.9 72.98C4.35333 73.1533 4.86 73.24 5.42 73.24C5.88667 73.24 6.33333 73.1733 6.76 73.04C7.18667 72.9067 7.56667 72.7067 7.9 72.44C8.23333 72.1733 8.5 71.8467 8.7 71.46C8.9 71.0733 9 70.6333 9 70.14C9 69.6333 8.91333 69.2 8.74 68.84C8.56667 68.4667 8.32667 68.16 8.02 67.92C7.71333 67.6667 7.35333 67.48 6.94 67.36C6.54 67.24 6.10667 67.18 5.64 67.18H4.58V66.12H5.64C5.96 66.12 6.28667 66.0733 6.62 65.98C6.96667 65.8733 7.27333 65.72 7.54 65.52C7.82 65.3067 8.04667 65.04 8.22 64.72C8.39333 64.4 8.48 64.02 8.48 63.58C8.48 63.1133 8.4 62.72 8.24 62.4C8.08 62.0667 7.86 61.7933 7.58 61.58C7.3 61.3533 6.97333 61.1933 6.6 61.1C6.24 60.9933 5.84667 60.94 5.42 60.94C4.9 60.94 4.44 61.0267 4.04 61.2C3.64 61.3733 3.3 61.62 3.02 61.94C2.75333 62.2467 2.55333 62.62 2.42 63.06C2.28667 63.4867 2.22667 63.96 2.24 64.48H0.98C0.98 63.8133 1.08 63.2 1.28 62.64C1.49333 62.08 1.78667 61.6 2.16 61.2C2.54667 60.7867 3.01333 60.4667 3.56 60.24C4.10667 60 4.72 59.88 5.4 59.88C5.94667 59.88 6.48 59.9533 7 60.1C7.52 60.2333 7.98 60.4467 8.38 60.74C8.79333 61.02 9.12 61.3867 9.36 61.84C9.61333 62.28 9.74 62.8133 9.74 63.44C9.74 64.2 9.53333 64.86 9.12 65.42C8.72 65.98 8.14 66.3533 7.38 66.54V66.58C8.3 66.7267 9.00667 67.1133 9.5 67.74C10.0067 68.3533 10.26 69.12 10.26 70.04C10.26 70.7333 10.1267 71.3467 9.86 71.88C9.60667 72.4 9.26 72.84 8.82 73.2C8.38 73.56 7.86667 73.8267 7.28 74C6.69333 74.1867 6.08 74.28 5.44 74.28C4.72 74.28 4.05333 74.1733 3.44 73.96C2.84 73.7467 2.32 73.44 1.88 73.04C1.45333 72.64 1.12667 72.1467 0.9 71.56C0.686667 70.9733 0.606667 70.3 0.66 69.54H1.92ZM13.0533 74V71.88H14.7333V74H13.0533Z" fill="#202020"/>
<path d="M19 113L39 26H67H95L112 113L95 183.5L112 274.5L99 348.5L116 433L99 526.5H45.5L19 433L39 348.5L19 274.5L39 183.5L19 113Z" fill="#00C40F"/>
<path d="M67 26H95L112 113L95 183.5L112 274.5L99 348.5L116 433L99 526.5H45.5L19 433L39 348.5L19 274.5L39 183.5L19 113L39 26H67ZM67 26V0.5" stroke="#202020"/>
<path d="M36.309 74.712H37.515L39.891 82.668H39.927L42.195 74.712H43.473L45.741 82.668H45.777L48.153 74.712H49.359L46.371 84H45.129L42.843 76.188H42.807L40.539 84H39.297L36.309 74.712ZM50.5688 71.148H51.7028V76.314H51.7388C51.9548 75.75 52.3388 75.3 52.8908 74.964C53.4428 74.616 54.0488 74.442 54.7088 74.442C55.3568 74.442 55.8968 74.526 56.3288 74.694C56.7728 74.862 57.1268 75.102 57.3908 75.414C57.6548 75.714 57.8408 76.086 57.9488 76.53C58.0568 76.974 58.1108 77.472 58.1108 78.024V84H56.9768V78.204C56.9768 77.808 56.9408 77.442 56.8688 77.106C56.7968 76.758 56.6708 76.458 56.4908 76.206C56.3108 75.954 56.0648 75.756 55.7528 75.612C55.4528 75.468 55.0748 75.396 54.6188 75.396C54.1628 75.396 53.7548 75.48 53.3948 75.648C53.0468 75.804 52.7468 76.026 52.4948 76.314C52.2548 76.59 52.0628 76.926 51.9188 77.322C51.7868 77.706 51.7148 78.126 51.7028 78.582V84H50.5688V71.148ZM60.1468 77.556C60.1828 77.016 60.2968 76.548 60.4888 76.152C60.6808 75.756 60.9388 75.432 61.2628 75.18C61.5988 74.928 61.9888 74.742 62.4328 74.622C62.8768 74.502 63.3688 74.442 63.9088 74.442C64.3168 74.442 64.7248 74.484 65.1328 74.568C65.5408 74.64 65.9068 74.784 66.2308 75C66.5548 75.216 66.8188 75.522 67.0228 75.918C67.2268 76.302 67.3288 76.806 67.3288 77.43V82.362C67.3288 82.818 67.5508 83.046 67.9948 83.046C68.1268 83.046 68.2468 83.022 68.3548 82.974V83.928C68.2228 83.952 68.1028 83.97 67.9948 83.982C67.8988 83.994 67.7728 84 67.6168 84C67.3288 84 67.0948 83.964 66.9148 83.892C66.7468 83.808 66.6148 83.694 66.5188 83.55C66.4228 83.406 66.3568 83.238 66.3208 83.046C66.2968 82.842 66.2848 82.62 66.2848 82.38H66.2488C66.0448 82.68 65.8348 82.95 65.6188 83.19C65.4148 83.418 65.1808 83.61 64.9168 83.766C64.6648 83.922 64.3708 84.042 64.0348 84.126C63.7108 84.21 63.3208 84.252 62.8648 84.252C62.4328 84.252 62.0248 84.198 61.6408 84.09C61.2688 83.994 60.9388 83.838 60.6508 83.622C60.3748 83.394 60.1528 83.112 59.9848 82.776C59.8288 82.428 59.7508 82.02 59.7508 81.552C59.7508 80.904 59.8948 80.4 60.1828 80.04C60.4708 79.668 60.8488 79.386 61.3168 79.194C61.7968 79.002 62.3308 78.87 62.9188 78.798C63.5188 78.714 64.1248 78.636 64.7368 78.564C64.9768 78.54 65.1868 78.51 65.3668 78.474C65.5468 78.438 65.6968 78.378 65.8168 78.294C65.9368 78.198 66.0268 78.072 66.0868 77.916C66.1588 77.76 66.1948 77.556 66.1948 77.304C66.1948 76.92 66.1288 76.608 65.9968 76.368C65.8768 76.116 65.7028 75.918 65.4748 75.774C65.2588 75.63 65.0008 75.534 64.7008 75.486C64.4128 75.426 64.1008 75.396 63.7648 75.396C63.0448 75.396 62.4568 75.57 62.0008 75.918C61.5448 76.254 61.3048 76.8 61.2808 77.556H60.1468ZM66.1948 78.924H66.1588C66.0868 79.056 65.9488 79.152 65.7448 79.212C65.5408 79.272 65.3608 79.314 65.2048 79.338C64.7248 79.422 64.2268 79.5 63.7108 79.572C63.2068 79.632 62.7448 79.728 62.3248 79.86C61.9048 79.992 61.5568 80.184 61.2808 80.436C61.0168 80.676 60.8848 81.024 60.8848 81.48C60.8848 81.768 60.9388 82.026 61.0468 82.254C61.1668 82.47 61.3228 82.662 61.5148 82.83C61.7068 82.986 61.9288 83.106 62.1808 83.19C62.4328 83.274 62.6908 83.316 62.9548 83.316C63.3868 83.316 63.8008 83.25 64.1968 83.118C64.5928 82.986 64.9348 82.794 65.2228 82.542C65.5228 82.29 65.7568 81.984 65.9248 81.624C66.1048 81.264 66.1948 80.856 66.1948 80.4V78.924ZM71.3888 74.712H73.2788V75.666H71.3888V81.93C71.3888 82.302 71.4368 82.596 71.5328 82.812C71.6408 83.016 71.8988 83.13 72.3068 83.154C72.6308 83.154 72.9548 83.136 73.2788 83.1V84.054C73.1108 84.054 72.9428 84.06 72.7748 84.072C72.6068 84.084 72.4388 84.09 72.2708 84.09C71.5148 84.09 70.9868 83.946 70.6868 83.658C70.3868 83.358 70.2428 82.812 70.2548 82.02V75.666H68.6348V74.712H70.2548V71.922H71.3888V74.712Z" fill="#202020"/>
<path d="M81.5831 170H80.5391V168.236H80.5031C80.3831 168.536 80.2031 168.812 79.9631 169.064C79.7351 169.316 79.4711 169.532 79.1711 169.712C78.8711 169.88 78.5471 170.012 78.1991 170.108C77.8631 170.204 77.5271 170.252 77.1911 170.252C76.4831 170.252 75.8651 170.126 75.3371 169.874C74.8211 169.61 74.3891 169.256 74.0411 168.812C73.6931 168.356 73.4351 167.834 73.2671 167.246C73.0991 166.646 73.0151 166.016 73.0151 165.356C73.0151 164.696 73.0991 164.072 73.2671 163.484C73.4351 162.884 73.6931 162.362 74.0411 161.918C74.3891 161.462 74.8211 161.102 75.3371 160.838C75.8651 160.574 76.4831 160.442 77.1911 160.442C77.5391 160.442 77.8751 160.484 78.1991 160.568C78.5351 160.652 78.8471 160.784 79.1351 160.964C79.4231 161.132 79.6751 161.342 79.8911 161.594C80.1191 161.846 80.2931 162.14 80.4131 162.476H80.4491V157.148H81.5831V170ZM74.1491 165.356C74.1491 165.836 74.2031 166.316 74.3111 166.796C74.4311 167.264 74.6111 167.684 74.8511 168.056C75.1031 168.428 75.4211 168.734 75.8051 168.974C76.1891 169.202 76.6511 169.316 77.1911 169.316C77.7911 169.316 78.2951 169.202 78.7031 168.974C79.1231 168.734 79.4591 168.428 79.7111 168.056C79.9751 167.684 80.1611 167.264 80.2691 166.796C80.3891 166.316 80.4491 165.836 80.4491 165.356C80.4491 164.876 80.3891 164.402 80.2691 163.934C80.1611 163.454 79.9751 163.028 79.7111 162.656C79.4591 162.284 79.1231 161.984 78.7031 161.756C78.2951 161.516 77.7911 161.396 77.1911 161.396C76.6511 161.396 76.1891 161.516 75.8051 161.756C75.4211 161.984 75.1031 162.284 74.8511 162.656C74.6111 163.028 74.4311 163.454 74.3111 163.934C74.2031 164.402 74.1491 164.876 74.1491 165.356ZM87.671 161.396C87.131 161.396 86.657 161.51 86.249 161.738C85.841 161.966 85.499 162.266 85.223 162.638C84.959 163.01 84.755 163.436 84.611 163.916C84.479 164.384 84.413 164.864 84.413 165.356C84.413 165.848 84.479 166.334 84.611 166.814C84.755 167.282 84.959 167.702 85.223 168.074C85.499 168.446 85.841 168.746 86.249 168.974C86.657 169.202 87.131 169.316 87.671 169.316C88.211 169.316 88.685 169.202 89.093 168.974C89.501 168.746 89.837 168.446 90.101 168.074C90.377 167.702 90.581 167.282 90.713 166.814C90.857 166.334 90.929 165.848 90.929 165.356C90.929 164.864 90.857 164.384 90.713 163.916C90.581 163.436 90.377 163.01 90.101 162.638C89.837 162.266 89.501 161.966 89.093 161.738C88.685 161.51 88.211 161.396 87.671 161.396ZM87.671 160.442C88.379 160.442 89.003 160.574 89.543 160.838C90.095 161.102 90.557 161.456 90.929 161.9C91.301 162.344 91.583 162.866 91.775 163.466C91.967 164.054 92.063 164.684 92.063 165.356C92.063 166.028 91.967 166.664 91.775 167.264C91.583 167.852 91.301 168.368 90.929 168.812C90.557 169.256 90.095 169.61 89.543 169.874C89.003 170.126 88.379 170.252 87.671 170.252C86.963 170.252 86.333 170.126 85.781 169.874C85.241 169.61 84.785 169.256 84.413 168.812C84.041 168.368 83.759 167.852 83.567 167.264C83.375 166.664 83.279 166.028 83.279 165.356C83.279 164.684 83.375 164.054 83.567 163.466C83.759 162.866 84.041 162.344 84.413 161.9C84.785 161.456 85.241 161.102 85.781 160.838C86.333 160.574 86.963 160.442 87.671 160.442Z" fill="#202020"/>
<path d="M34.535 245.712H35.741L38.801 253.632L41.663 245.712H42.797L38.765 256.404C38.597 256.8 38.441 257.124 38.297 257.376C38.153 257.64 37.991 257.844 37.811 257.988C37.643 258.144 37.439 258.252 37.199 258.312C36.971 258.384 36.677 258.42 36.317 258.42C36.089 258.408 35.909 258.396 35.777 258.384C35.657 258.384 35.549 258.366 35.453 258.33V257.376C35.585 257.4 35.711 257.418 35.831 257.43C35.963 257.454 36.095 257.466 36.227 257.466C36.479 257.466 36.683 257.43 36.839 257.358C37.007 257.286 37.151 257.184 37.271 257.052C37.391 256.932 37.493 256.782 37.577 256.602C37.661 256.422 37.751 256.224 37.847 256.008L38.243 254.964L34.535 245.712ZM47.8351 246.396C47.2951 246.396 46.8211 246.51 46.4131 246.738C46.0051 246.966 45.6631 247.266 45.3871 247.638C45.1231 248.01 44.9191 248.436 44.7751 248.916C44.6431 249.384 44.5771 249.864 44.5771 250.356C44.5771 250.848 44.6431 251.334 44.7751 251.814C44.9191 252.282 45.1231 252.702 45.3871 253.074C45.6631 253.446 46.0051 253.746 46.4131 253.974C46.8211 254.202 47.2951 254.316 47.8351 254.316C48.3751 254.316 48.8491 254.202 49.2571 253.974C49.6651 253.746 50.0011 253.446 50.2651 253.074C50.5411 252.702 50.7451 252.282 50.8771 251.814C51.0211 251.334 51.0931 250.848 51.0931 250.356C51.0931 249.864 51.0211 249.384 50.8771 248.916C50.7451 248.436 50.5411 248.01 50.2651 247.638C50.0011 247.266 49.6651 246.966 49.2571 246.738C48.8491 246.51 48.3751 246.396 47.8351 246.396ZM47.8351 245.442C48.5431 245.442 49.1671 245.574 49.7071 245.838C50.2591 246.102 50.7211 246.456 51.0931 246.9C51.4651 247.344 51.7471 247.866 51.9391 248.466C52.1311 249.054 52.2271 249.684 52.2271 250.356C52.2271 251.028 52.1311 251.664 51.9391 252.264C51.7471 252.852 51.4651 253.368 51.0931 253.812C50.7211 254.256 50.2591 254.61 49.7071 254.874C49.1671 255.126 48.5431 255.252 47.8351 255.252C47.1271 255.252 46.4971 255.126 45.9451 254.874C45.4051 254.61 44.9491 254.256 44.5771 253.812C44.2051 253.368 43.9231 252.852 43.7311 252.264C43.5391 251.664 43.4431 251.028 43.4431 250.356C43.4431 249.684 43.5391 249.054 43.7311 248.466C43.9231 247.866 44.2051 247.344 44.5771 246.9C44.9491 246.456 45.4051 246.102 45.9451 245.838C46.4971 245.574 47.1271 245.442 47.8351 245.442ZM61.437 255H60.393V253.326H60.357C60.057 253.95 59.619 254.43 59.043 254.766C58.479 255.09 57.849 255.252 57.153 255.252C56.565 255.252 56.061 255.168 55.641 255C55.233 254.844 54.897 254.616 54.633 254.316C54.381 254.016 54.195 253.65 54.075 253.218C53.955 252.786 53.895 252.294 53.895 251.742V245.712H55.029V251.76C55.053 252.6 55.245 253.236 55.605 253.668C55.977 254.1 56.613 254.316 57.513 254.316C58.005 254.316 58.425 254.214 58.773 254.01C59.121 253.794 59.409 253.512 59.637 253.164C59.865 252.816 60.033 252.42 60.141 251.976C60.249 251.52 60.303 251.058 60.303 250.59V245.712H61.437V255Z" fill="#202020"/>
<path d="M73.8129 308.43C73.8009 308.082 73.7289 307.782 73.5969 307.53C73.4649 307.266 73.2849 307.05 73.0569 306.882C72.8409 306.714 72.5889 306.594 72.3009 306.522C72.0129 306.438 71.7069 306.396 71.3829 306.396C71.1309 306.396 70.8729 306.426 70.6089 306.486C70.3569 306.534 70.1229 306.624 69.9069 306.756C69.6909 306.876 69.5169 307.038 69.3849 307.242C69.2529 307.446 69.1869 307.698 69.1869 307.998C69.1869 308.25 69.2469 308.466 69.3669 308.646C69.4989 308.814 69.6609 308.958 69.8529 309.078C70.0449 309.198 70.2549 309.3 70.4829 309.384C70.7109 309.456 70.9209 309.516 71.1129 309.564L72.6249 309.906C72.9489 309.954 73.2669 310.044 73.5789 310.176C73.9029 310.296 74.1849 310.458 74.4249 310.662C74.6769 310.866 74.8809 311.118 75.0369 311.418C75.1929 311.718 75.2709 312.072 75.2709 312.48C75.2709 312.984 75.1569 313.416 74.9289 313.776C74.7009 314.124 74.4069 314.412 74.0469 314.64C73.6989 314.856 73.3029 315.012 72.8589 315.108C72.4149 315.204 71.9769 315.252 71.5449 315.252C70.4529 315.252 69.5649 314.994 68.8809 314.478C68.2089 313.962 67.8249 313.134 67.7289 311.994H68.8629C68.9109 312.762 69.1869 313.344 69.6909 313.74C70.2069 314.124 70.8429 314.316 71.5989 314.316C71.8749 314.316 72.1569 314.286 72.4449 314.226C72.7449 314.166 73.0209 314.064 73.2729 313.92C73.5249 313.776 73.7289 313.596 73.8849 313.38C74.0529 313.152 74.1369 312.876 74.1369 312.552C74.1369 312.276 74.0769 312.048 73.9569 311.868C73.8489 311.676 73.6989 311.52 73.5069 311.4C73.3149 311.268 73.0929 311.16 72.8409 311.076C72.6009 310.992 72.3549 310.92 72.1029 310.86L70.6449 310.536C70.2729 310.44 69.9309 310.332 69.6189 310.212C69.3069 310.08 69.0309 309.924 68.7909 309.744C68.5629 309.552 68.3829 309.324 68.2509 309.06C68.1189 308.784 68.0529 308.448 68.0529 308.052C68.0529 307.584 68.1549 307.182 68.3589 306.846C68.5749 306.51 68.8509 306.24 69.1869 306.036C69.5229 305.832 69.8949 305.682 70.3029 305.586C70.7229 305.49 71.1369 305.442 71.5449 305.442C72.0129 305.442 72.4449 305.502 72.8409 305.622C73.2489 305.742 73.6029 305.928 73.9029 306.18C74.2149 306.432 74.4609 306.744 74.6409 307.116C74.8209 307.488 74.9229 307.926 74.9469 308.43H73.8129ZM76.9349 302.148H78.0689V303.966H76.9349V302.148ZM76.9349 305.712H78.0689V315H76.9349V305.712ZM80.2212 305.712H81.3552V307.314H81.3912C81.6072 306.75 81.9912 306.3 82.5432 305.964C83.0952 305.616 83.7012 305.442 84.3612 305.442C85.0092 305.442 85.5492 305.526 85.9812 305.694C86.4252 305.862 86.7792 306.102 87.0432 306.414C87.3072 306.714 87.4932 307.086 87.6012 307.53C87.7092 307.974 87.7632 308.472 87.7632 309.024V315H86.6292V309.204C86.6292 308.808 86.5932 308.442 86.5212 308.106C86.4492 307.758 86.3232 307.458 86.1432 307.206C85.9632 306.954 85.7172 306.756 85.4052 306.612C85.1052 306.468 84.7272 306.396 84.2712 306.396C83.8152 306.396 83.4072 306.48 83.0472 306.648C82.6992 306.804 82.3992 307.026 82.1472 307.314C81.9072 307.59 81.7152 307.926 81.5712 308.322C81.4392 308.706 81.3672 309.126 81.3552 309.582V315H80.2212V305.712ZM97.7551 314.244C97.7551 314.928 97.6771 315.546 97.5211 316.098C97.3771 316.65 97.1431 317.118 96.8191 317.502C96.4951 317.886 96.0691 318.18 95.5411 318.384C95.0251 318.588 94.3891 318.69 93.6331 318.69C93.1651 318.69 92.7091 318.636 92.2651 318.528C91.8211 318.42 91.4191 318.252 91.0591 318.024C90.7111 317.796 90.4171 317.502 90.1771 317.142C89.9491 316.794 89.8171 316.374 89.7811 315.882H90.9151C90.9751 316.23 91.0891 316.518 91.2571 316.746C91.4371 316.986 91.6471 317.178 91.8871 317.322C92.1391 317.466 92.4151 317.568 92.7151 317.628C93.0151 317.7 93.3211 317.736 93.6331 317.736C94.6891 317.736 95.4511 317.436 95.9191 316.836C96.3871 316.236 96.6211 315.372 96.6211 314.244V312.984H96.5851C96.3211 313.56 95.9311 314.022 95.4151 314.37C94.9111 314.718 94.3171 314.892 93.6331 314.892C92.8891 314.892 92.2531 314.772 91.7251 314.532C91.1971 314.28 90.7591 313.938 90.4111 313.506C90.0751 313.074 89.8291 312.57 89.6731 311.994C89.5171 311.406 89.4391 310.782 89.4391 310.122C89.4391 309.486 89.5291 308.886 89.7091 308.322C89.9011 307.746 90.1711 307.248 90.5191 306.828C90.8791 306.396 91.3171 306.06 91.8331 305.82C92.3611 305.568 92.9611 305.442 93.6331 305.442C93.9811 305.442 94.3051 305.49 94.6051 305.586C94.9171 305.682 95.1991 305.82 95.4511 306C95.7031 306.168 95.9251 306.366 96.1171 306.594C96.3211 306.822 96.4771 307.062 96.5851 307.314H96.6211V305.712H97.7551V314.244ZM93.6331 313.938C94.1251 313.938 94.5571 313.836 94.9291 313.632C95.3011 313.416 95.6131 313.14 95.8651 312.804C96.1171 312.456 96.3031 312.06 96.4231 311.616C96.5551 311.172 96.6211 310.716 96.6211 310.248C96.6211 309.792 96.5671 309.336 96.4591 308.88C96.3511 308.424 96.1771 308.01 95.9371 307.638C95.6971 307.266 95.3851 306.966 95.0011 306.738C94.6291 306.51 94.1731 306.396 93.6331 306.396C93.0931 306.396 92.6311 306.51 92.2471 306.738C91.8631 306.954 91.5451 307.242 91.2931 307.602C91.0411 307.962 90.8551 308.376 90.7351 308.844C90.6271 309.3 90.5731 309.768 90.5731 310.248C90.5731 310.716 90.6331 311.172 90.7531 311.616C90.8731 312.06 91.0591 312.456 91.3111 312.804C91.5631 313.14 91.8811 313.416 92.2651 313.632C92.6491 313.836 93.1051 313.938 93.6331 313.938Z" fill="#202020"/>
</svg>
