<svg width="126" height="524" viewBox="0 0 126 524" fill="none" xmlns="http://www.w3.org/2000/svg">
<path d="M27 241C27 241 27 232.5 35 229.5V224C35 224 28 223 28 206.5C28 190 43 188 43 188V181.5C43 181.5 37 178.5 35 168C33 157.5 43 151 43 151L45.5 20.5H63.25H81V151C81 151 89 156.5 89 166C89 178 81 181.5 81 181.5V188C81 188 96 191.5 96 206.5C96 221.5 89 224 89 224V229.5C94.349 231.046 96.0819 233.755 97.5 241L124.5 523H1L27 241Z" fill="#F3979D"/>
<path d="M63 0L63.25 20.5M63.25 20.5H81V151C81 151 89 156.5 89 166C89 178 81 181.5 81 181.5V188C81 188 96 191.5 96 206.5C96 221.5 89 224 89 224V229.5C94.349 231.046 96.0819 233.755 97.5 241L124.5 523H1L27 241C27 241 27 232.5 35 229.5V224C35 224 28 223 28 206.5C28 190 43 188 43 188V181.5C43 181.5 37 178.5 35 168C33 157.5 43 151 43 151L45.5 20.5H63.25Z" stroke="#202020"/>
<path d="M16.94 28.7C17.4867 28.6867 17.98 28.66 18.42 28.62C18.8733 28.5667 19.26 28.4533 19.58 28.28C19.9133 28.1067 20.1867 27.8467 20.4 27.5C20.6267 27.14 20.7867 26.64 20.88 26H21.9V40H20.64V29.6H16.94V28.7ZM28.0533 40V37.88H29.7333V40H28.0533Z" fill="#202020"/>
<path d="M41.5772 324H40.5332V322.236H40.4972C40.3772 322.536 40.1972 322.812 39.9572 323.064C39.7292 323.316 39.4652 323.532 39.1652 323.712C38.8652 323.88 38.5412 324.012 38.1932 324.108C37.8572 324.204 37.5212 324.252 37.1852 324.252C36.4772 324.252 35.8592 324.126 35.3312 323.874C34.8152 323.61 34.3832 323.256 34.0352 322.812C33.6872 322.356 33.4292 321.834 33.2612 321.246C33.0932 320.646 33.0092 320.016 33.0092 319.356C33.0092 318.696 33.0932 318.072 33.2612 317.484C33.4292 316.884 33.6872 316.362 34.0352 315.918C34.3832 315.462 34.8152 315.102 35.3312 314.838C35.8592 314.574 36.4772 314.442 37.1852 314.442C37.5332 314.442 37.8692 314.484 38.1932 314.568C38.5292 314.652 38.8412 314.784 39.1292 314.964C39.4172 315.132 39.6692 315.342 39.8852 315.594C40.1132 315.846 40.2872 316.14 40.4072 316.476H40.4432V311.148H41.5772V324ZM34.1432 319.356C34.1432 319.836 34.1972 320.316 34.3052 320.796C34.4252 321.264 34.6052 321.684 34.8452 322.056C35.0972 322.428 35.4152 322.734 35.7992 322.974C36.1832 323.202 36.6452 323.316 37.1852 323.316C37.7852 323.316 38.2892 323.202 38.6972 322.974C39.1172 322.734 39.4532 322.428 39.7052 322.056C39.9692 321.684 40.1552 321.264 40.2632 320.796C40.3832 320.316 40.4432 319.836 40.4432 319.356C40.4432 318.876 40.3832 318.402 40.2632 317.934C40.1552 317.454 39.9692 317.028 39.7052 316.656C39.4532 316.284 39.1172 315.984 38.6972 315.756C38.2892 315.516 37.7852 315.396 37.1852 315.396C36.6452 315.396 36.1832 315.516 35.7992 315.756C35.4152 315.984 35.0972 316.284 34.8452 316.656C34.6052 317.028 34.4252 317.454 34.3052 317.934C34.1972 318.402 34.1432 318.876 34.1432 319.356ZM43.7411 314.712H44.7851V316.89H44.8211C45.1091 316.134 45.5531 315.552 46.1531 315.144C46.7651 314.736 47.4911 314.55 48.3311 314.586V315.72C47.8151 315.696 47.3471 315.768 46.9271 315.936C46.5071 316.092 46.1411 316.32 45.8291 316.62C45.5291 316.92 45.2951 317.28 45.1271 317.7C44.9591 318.108 44.8751 318.558 44.8751 319.05V324H43.7411V314.712ZM49.3109 317.556C49.3469 317.016 49.4609 316.548 49.6529 316.152C49.8449 315.756 50.1029 315.432 50.4269 315.18C50.7629 314.928 51.1529 314.742 51.5969 314.622C52.0409 314.502 52.5329 314.442 53.0729 314.442C53.4809 314.442 53.8889 314.484 54.2969 314.568C54.7049 314.64 55.0709 314.784 55.3949 315C55.7189 315.216 55.9829 315.522 56.1869 315.918C56.3909 316.302 56.4929 316.806 56.4929 317.43V322.362C56.4929 322.818 56.7149 323.046 57.1589 323.046C57.2909 323.046 57.4109 323.022 57.5189 322.974V323.928C57.3869 323.952 57.2669 323.97 57.1589 323.982C57.0629 323.994 56.9369 324 56.7809 324C56.4929 324 56.2589 323.964 56.0789 323.892C55.9109 323.808 55.7789 323.694 55.6829 323.55C55.5869 323.406 55.5209 323.238 55.4849 323.046C55.4609 322.842 55.4489 322.62 55.4489 322.38H55.4129C55.2089 322.68 54.9989 322.95 54.7829 323.19C54.5789 323.418 54.3449 323.61 54.0809 323.766C53.8289 323.922 53.5349 324.042 53.1989 324.126C52.8749 324.21 52.4849 324.252 52.0289 324.252C51.5969 324.252 51.1889 324.198 50.8049 324.09C50.4329 323.994 50.1029 323.838 49.8149 323.622C49.5389 323.394 49.3169 323.112 49.1489 322.776C48.9929 322.428 48.9149 322.02 48.9149 321.552C48.9149 320.904 49.0589 320.4 49.3469 320.04C49.6349 319.668 50.0129 319.386 50.4809 319.194C50.9609 319.002 51.4949 318.87 52.0829 318.798C52.6829 318.714 53.2889 318.636 53.9009 318.564C54.1409 318.54 54.3509 318.51 54.5309 318.474C54.7109 318.438 54.8609 318.378 54.9809 318.294C55.1009 318.198 55.1909 318.072 55.2509 317.916C55.3229 317.76 55.3589 317.556 55.3589 317.304C55.3589 316.92 55.2929 316.608 55.1609 316.368C55.0409 316.116 54.8669 315.918 54.6389 315.774C54.4229 315.63 54.1649 315.534 53.8649 315.486C53.5769 315.426 53.2649 315.396 52.9289 315.396C52.2089 315.396 51.6209 315.57 51.1649 315.918C50.7089 316.254 50.4689 316.8 50.4449 317.556H49.3109ZM55.3589 318.924H55.3229C55.2509 319.056 55.1129 319.152 54.9089 319.212C54.7049 319.272 54.5249 319.314 54.3689 319.338C53.8889 319.422 53.3909 319.5 52.8749 319.572C52.3709 319.632 51.9089 319.728 51.4889 319.86C51.0689 319.992 50.7209 320.184 50.4449 320.436C50.1809 320.676 50.0489 321.024 50.0489 321.48C50.0489 321.768 50.1029 322.026 50.2109 322.254C50.3309 322.47 50.4869 322.662 50.6789 322.83C50.8709 322.986 51.0929 323.106 51.3449 323.19C51.5969 323.274 51.8549 323.316 52.1189 323.316C52.5509 323.316 52.9649 323.25 53.3609 323.118C53.7569 322.986 54.0989 322.794 54.3869 322.542C54.6869 322.29 54.9209 321.984 55.0889 321.624C55.2689 321.264 55.3589 320.856 55.3589 320.4V318.924ZM66.6009 323.244C66.6009 323.928 66.5229 324.546 66.3669 325.098C66.2229 325.65 65.9889 326.118 65.6649 326.502C65.3409 326.886 64.9149 327.18 64.3869 327.384C63.8709 327.588 63.2349 327.69 62.4789 327.69C62.0109 327.69 61.5549 327.636 61.1109 327.528C60.6669 327.42 60.2649 327.252 59.9049 327.024C59.5569 326.796 59.2629 326.502 59.0229 326.142C58.7949 325.794 58.6629 325.374 58.6269 324.882H59.7609C59.8209 325.23 59.9349 325.518 60.1029 325.746C60.2829 325.986 60.4929 326.178 60.7329 326.322C60.9849 326.466 61.2609 326.568 61.5609 326.628C61.8609 326.7 62.1669 326.736 62.4789 326.736C63.5349 326.736 64.2969 326.436 64.7649 325.836C65.2329 325.236 65.4669 324.372 65.4669 323.244V321.984H65.4309C65.1669 322.56 64.7769 323.022 64.2609 323.37C63.7569 323.718 63.1629 323.892 62.4789 323.892C61.7349 323.892 61.0989 323.772 60.5709 323.532C60.0429 323.28 59.6049 322.938 59.2569 322.506C58.9209 322.074 58.6749 321.57 58.5189 320.994C58.3629 320.406 58.2849 319.782 58.2849 319.122C58.2849 318.486 58.3749 317.886 58.5549 317.322C58.7469 316.746 59.0169 316.248 59.3649 315.828C59.7249 315.396 60.1629 315.06 60.6789 314.82C61.2069 314.568 61.8069 314.442 62.4789 314.442C62.8269 314.442 63.1509 314.49 63.4509 314.586C63.7629 314.682 64.0449 314.82 64.2969 315C64.5489 315.168 64.7709 315.366 64.9629 315.594C65.1669 315.822 65.3229 316.062 65.4309 316.314H65.4669V314.712H66.6009V323.244ZM62.4789 322.938C62.9709 322.938 63.4029 322.836 63.7749 322.632C64.1469 322.416 64.4589 322.14 64.7109 321.804C64.9629 321.456 65.1489 321.06 65.2689 320.616C65.4009 320.172 65.4669 319.716 65.4669 319.248C65.4669 318.792 65.4129 318.336 65.3049 317.88C65.1969 317.424 65.0229 317.01 64.7829 316.638C64.5429 316.266 64.2309 315.966 63.8469 315.738C63.4749 315.51 63.0189 315.396 62.4789 315.396C61.9389 315.396 61.4769 315.51 61.0929 315.738C60.7089 315.954 60.3909 316.242 60.1389 316.602C59.8869 316.962 59.7009 317.376 59.5809 317.844C59.4729 318.3 59.4189 318.768 59.4189 319.248C59.4189 319.716 59.4789 320.172 59.5989 320.616C59.7189 321.06 59.9049 321.456 60.1569 321.804C60.4089 322.14 60.7269 322.416 61.1109 322.632C61.4949 322.836 61.9509 322.938 62.4789 322.938Z" fill="#202020"/>
<path d="M76.169 362.396C75.629 362.396 75.155 362.51 74.747 362.738C74.339 362.966 73.997 363.266 73.721 363.638C73.457 364.01 73.253 364.436 73.109 364.916C72.977 365.384 72.911 365.864 72.911 366.356C72.911 366.848 72.977 367.334 73.109 367.814C73.253 368.282 73.457 368.702 73.721 369.074C73.997 369.446 74.339 369.746 74.747 369.974C75.155 370.202 75.629 370.316 76.169 370.316C76.709 370.316 77.183 370.202 77.591 369.974C77.999 369.746 78.335 369.446 78.599 369.074C78.875 368.702 79.079 368.282 79.211 367.814C79.355 367.334 79.427 366.848 79.427 366.356C79.427 365.864 79.355 365.384 79.211 364.916C79.079 364.436 78.875 364.01 78.599 363.638C78.335 363.266 77.999 362.966 77.591 362.738C77.183 362.51 76.709 362.396 76.169 362.396ZM76.169 361.442C76.877 361.442 77.501 361.574 78.041 361.838C78.593 362.102 79.055 362.456 79.427 362.9C79.799 363.344 80.081 363.866 80.273 364.466C80.465 365.054 80.561 365.684 80.561 366.356C80.561 367.028 80.465 367.664 80.273 368.264C80.081 368.852 79.799 369.368 79.427 369.812C79.055 370.256 78.593 370.61 78.041 370.874C77.501 371.126 76.877 371.252 76.169 371.252C75.461 371.252 74.831 371.126 74.279 370.874C73.739 370.61 73.283 370.256 72.911 369.812C72.539 369.368 72.257 368.852 72.065 368.264C71.873 367.664 71.777 367.028 71.777 366.356C71.777 365.684 71.873 365.054 72.065 364.466C72.257 363.866 72.539 363.344 72.911 362.9C73.283 362.456 73.739 362.102 74.279 361.838C74.831 361.574 75.461 361.442 76.169 361.442ZM82.229 361.712H83.363V363.314H83.399C83.615 362.75 83.999 362.3 84.551 361.964C85.103 361.616 85.709 361.442 86.369 361.442C87.017 361.442 87.557 361.526 87.989 361.694C88.433 361.862 88.787 362.102 89.051 362.414C89.315 362.714 89.501 363.086 89.609 363.53C89.717 363.974 89.771 364.472 89.771 365.024V371H88.637V365.204C88.637 364.808 88.601 364.442 88.529 364.106C88.457 363.758 88.331 363.458 88.151 363.206C87.971 362.954 87.725 362.756 87.413 362.612C87.113 362.468 86.735 362.396 86.279 362.396C85.823 362.396 85.415 362.48 85.055 362.648C84.707 362.804 84.407 363.026 84.155 363.314C83.915 363.59 83.723 363.926 83.579 364.322C83.447 364.706 83.375 365.126 83.363 365.582V371H82.229V361.712Z" fill="#202020"/>
</svg>
