<svg width="95" height="539" viewBox="0 0 95 539" fill="none" xmlns="http://www.w3.org/2000/svg">
<path d="M9.94 198H0.72C0.733333 197.307 0.853333 196.693 1.08 196.16C1.30667 195.627 1.60667 195.147 1.98 194.72C2.35333 194.293 2.77333 193.907 3.24 193.56C3.70667 193.2 4.18667 192.86 4.68 192.54C5.17333 192.207 5.66 191.873 6.14 191.54C6.63333 191.193 7.07333 190.827 7.46 190.44C7.84667 190.053 8.13333 189.66 8.32 189.26C8.52 188.847 8.62 188.36 8.62 187.8C8.62 187.347 8.53333 186.947 8.36 186.6C8.2 186.24 7.97333 185.94 7.68 185.7C7.4 185.447 7.06667 185.26 6.68 185.14C6.30667 185.007 5.90667 184.94 5.48 184.94C4.90667 184.94 4.41333 185.047 4 185.26C3.6 185.473 3.27333 185.76 3.02 186.12C2.76667 186.48 2.58 186.893 2.46 187.36C2.35333 187.827 2.30667 188.32 2.32 188.84H1.06C1.04667 188.12 1.12667 187.46 1.3 186.86C1.48667 186.247 1.76667 185.72 2.14 185.28C2.51333 184.84 2.98 184.5 3.54 184.26C4.11333 184.007 4.78 183.88 5.54 183.88C6.15333 183.88 6.72 183.967 7.24 184.14C7.77333 184.3 8.23333 184.547 8.62 184.88C9.02 185.2 9.32667 185.607 9.54 186.1C9.76667 186.593 9.88 187.167 9.88 187.82C9.88 188.407 9.78 188.94 9.58 189.42C9.39333 189.9 9.13333 190.34 8.8 190.74C8.48 191.14 8.10667 191.513 7.68 191.86C7.26667 192.193 6.82667 192.507 6.36 192.8C6.02667 193.027 5.63333 193.28 5.18 193.56C4.72667 193.827 4.28667 194.127 3.86 194.46C3.44667 194.793 3.08 195.16 2.76 195.56C2.44 195.947 2.24 196.373 2.16 196.84H9.94V198ZM13.0533 198V195.88H14.7333V198H13.0533Z" fill="#202020"/>
<path d="M28.2223 59.5C28.1258 43.6071 24.2223 19 24.2223 19H47.5H73.2223C73.2223 19 68.0245 43.5415 67.7223 59.5C67.2578 84.021 77.162 96.981 77.7223 121.5C78.3752 150.074 64.9703 165.552 67.7223 194C70.6602 224.37 93.7224 251.5 94.2223 267.5C94.7222 283.5 94.2223 538 94.2223 538H7.22227C7.22227 538 6.72216 287 7.22227 267.5C7.72239 248 30.0498 224.241 32.2223 194C34.281 165.343 19.8589 150.23 19.7223 121.5C19.606 97.0613 28.3707 83.9385 28.2223 59.5Z" fill="#23A9E3"/>
<path d="M47.5 0.5V19M47.5 19H73.2223C73.2223 19 68.0245 43.5415 67.7223 59.5C67.2578 84.021 77.162 96.981 77.7223 121.5C78.3752 150.074 64.9703 165.552 67.7223 194C70.6602 224.37 93.7224 251.5 94.2223 267.5C94.7222 283.5 94.2223 538 94.2223 538H7.22227C7.22227 538 6.72216 287 7.22227 267.5C7.72239 248 30.0498 224.241 32.2223 194C34.281 165.343 19.8589 150.23 19.7223 121.5C19.606 97.0613 28.3707 83.9385 28.2223 59.5C28.1258 43.6071 24.2223 19 24.2223 19H47.5Z" stroke="#202020"/>
<path d="M40.2266 293.734V299H39.1484V290.516H40.1797V291.859H40.2734C40.6797 290.977 41.5234 290.406 42.7734 290.406C44.4922 290.406 45.6484 291.492 45.6484 293.516V299H44.5859V293.594C44.5859 292.227 43.7734 291.367 42.4922 291.375C41.1719 291.367 40.2188 292.266 40.2266 293.734ZM47.5234 296.625C47.5156 294.898 48.9141 294.25 50.6484 294.109C51.2188 294.078 52.5859 293.984 52.9922 293.969V293.172C53 292.031 52.2656 291.336 50.9297 291.344C49.8203 291.336 49.0703 291.852 48.8672 292.625H47.7578C47.9375 291.281 49.2266 290.398 50.9922 290.391C52.2578 290.398 54.0547 290.938 54.0547 293.266V299H52.9922V297.688H52.9297C52.5859 298.414 51.7422 299.195 50.3203 299.188C48.7734 299.195 47.5156 298.258 47.5234 296.625ZM48.5859 296.672C48.5859 297.672 49.3906 298.234 50.4766 298.234C52.0312 298.234 53 297.117 52.9922 295.766V294.852C52.5703 294.891 51.2266 294.992 50.8047 295.016C49.3047 295.117 48.5859 295.695 48.5859 296.672ZM59.8203 299.172C57.4219 299.18 55.9219 297.391 55.9297 294.812C55.9219 292.234 57.4531 290.398 59.6641 290.391C61.5078 290.398 63.2812 291.695 63.2891 294.578V295.078H56.9922C57.0391 297 58.1328 298.219 59.8203 298.219C60.9844 298.219 61.6719 297.617 61.9766 297.078H63.1172C62.7344 298.25 61.5312 299.18 59.8203 299.172ZM57 294.156H62.1953C62.1953 292.57 61.1641 291.352 59.6797 291.359C58.1484 291.352 57.0938 292.633 57 294.156Z" fill="#202020"/>
<path d="M40.7969 370.172C38.4922 370.18 37.0078 368.328 37.0156 365.797C37.0078 363.234 38.5312 361.398 40.7812 361.391C42.5 361.398 43.8281 362.469 44.0469 364.047H42.9844C42.7734 363.125 41.9844 362.352 40.7969 362.359C39.1875 362.352 38.0781 363.734 38.0781 365.766C38.0781 367.805 39.1562 369.211 40.7969 369.219C41.8984 369.211 42.7578 368.562 42.9844 367.516H44.0625C43.8359 369.047 42.5859 370.18 40.7969 370.172ZM46.9219 364.734V370H45.8438V358.688H46.9219V362.859H47C47.4062 361.969 48.2266 361.406 49.5156 361.406C51.2422 361.406 52.4141 362.477 52.4062 364.516V370H51.3438V364.594C51.3438 363.211 50.5234 362.367 49.2344 362.375C47.8906 362.367 46.9141 363.266 46.9219 364.734ZM54.7031 370V361.516H55.7656V370H54.7031ZM54.4688 359.328C54.4688 358.914 54.8203 358.586 55.25 358.578C55.6719 358.586 56.0234 358.914 56.0312 359.328C56.0234 359.742 55.6719 360.07 55.25 360.062C54.8203 360.07 54.4688 359.742 54.4688 359.328ZM59.1406 364.734V370H58.0625V361.516H59.0938V362.859H59.1875C59.5938 361.977 60.4375 361.406 61.6875 361.406C63.4062 361.406 64.5625 362.492 64.5625 364.516V370H63.5V364.594C63.5 363.227 62.6875 362.367 61.4062 362.375C60.0859 362.367 59.1328 363.266 59.1406 364.734Z" fill="#202020"/>
<path d="M37.4688 441V432.516H38.5V433.828H38.5938C38.9375 432.938 39.7656 432.406 40.875 432.406C42.0391 432.406 42.7891 432.977 43.1719 433.938H43.2344C43.625 433 44.5234 432.406 45.75 432.406C47.3203 432.406 48.3281 433.406 48.3281 435.312V441H47.25V435.328C47.2578 434.008 46.5156 433.367 45.4219 433.375C44.1484 433.367 43.4375 434.242 43.4375 435.438V441H42.3594V435.234C42.3594 434.117 41.6875 433.367 40.5625 433.375C39.4141 433.367 38.5391 434.289 38.5469 435.594V441H37.4688ZM50.2031 438.625C50.1953 436.898 51.5938 436.25 53.3281 436.109C53.8984 436.078 55.2656 435.984 55.6719 435.969V435.172C55.6797 434.031 54.9453 433.336 53.6094 433.344C52.5 433.336 51.75 433.852 51.5469 434.625H50.4375C50.6172 433.281 51.9062 432.398 53.6719 432.391C54.9375 432.398 56.7344 432.938 56.7344 435.266V441H55.6719V439.688H55.6094C55.2656 440.414 54.4219 441.195 53 441.188C51.4531 441.195 50.1953 440.258 50.2031 438.625ZM51.2656 438.672C51.2656 439.672 52.0703 440.234 53.1562 440.234C54.7109 440.234 55.6797 439.117 55.6719 437.766V436.852C55.25 436.891 53.9062 436.992 53.4844 437.016C51.9844 437.117 51.2656 437.695 51.2656 438.672ZM60.1094 435.734V441H59.0312V432.516H60.0625V433.859H60.1562C60.5625 432.977 61.4062 432.406 62.6562 432.406C64.375 432.406 65.5312 433.492 65.5312 435.516V441H64.4688V435.594C64.4688 434.227 63.6562 433.367 62.375 433.375C61.0547 433.367 60.1016 434.266 60.1094 435.734Z" fill="#202020"/>
</svg>
