<svg width="95" height="539" viewBox="0 0 95 539" fill="none" xmlns="http://www.w3.org/2000/svg">
<path d="M9.94 198H0.72C0.733333 197.307 0.853333 196.693 1.08 196.16C1.30667 195.627 1.60667 195.147 1.98 194.72C2.35333 194.293 2.77333 193.907 3.24 193.56C3.70667 193.2 4.18667 192.86 4.68 192.54C5.17333 192.207 5.66 191.873 6.14 191.54C6.63333 191.193 7.07333 190.827 7.46 190.44C7.84667 190.053 8.13333 189.66 8.32 189.26C8.52 188.847 8.62 188.36 8.62 187.8C8.62 187.347 8.53333 186.947 8.36 186.6C8.2 186.24 7.97333 185.94 7.68 185.7C7.4 185.447 7.06667 185.26 6.68 185.14C6.30667 185.007 5.90667 184.94 5.48 184.94C4.90667 184.94 4.41333 185.047 4 185.26C3.6 185.473 3.27333 185.76 3.02 186.12C2.76667 186.48 2.58 186.893 2.46 187.36C2.35333 187.827 2.30667 188.32 2.32 188.84H1.06C1.04667 188.12 1.12667 187.46 1.3 186.86C1.48667 186.247 1.76667 185.72 2.14 185.28C2.51333 184.84 2.98 184.5 3.54 184.26C4.11333 184.007 4.78 183.88 5.54 183.88C6.15333 183.88 6.72 183.967 7.24 184.14C7.77333 184.3 8.23333 184.547 8.62 184.88C9.02 185.2 9.32667 185.607 9.54 186.1C9.76667 186.593 9.88 187.167 9.88 187.82C9.88 188.407 9.78 188.94 9.58 189.42C9.39333 189.9 9.13333 190.34 8.8 190.74C8.48 191.14 8.10667 191.513 7.68 191.86C7.26667 192.193 6.82667 192.507 6.36 192.8C6.02667 193.027 5.63333 193.28 5.18 193.56C4.72667 193.827 4.28667 194.127 3.86 194.46C3.44667 194.793 3.08 195.16 2.76 195.56C2.44 195.947 2.24 196.373 2.16 196.84H9.94V198ZM13.0533 198V195.88H14.7333V198H13.0533Z" fill="#202020"/>
<path d="M28.2223 59.5C28.1258 43.6071 24.2223 19 24.2223 19H47.5H73.2223C73.2223 19 68.0245 43.5415 67.7223 59.5C67.2578 84.021 77.162 96.981 77.7223 121.5C78.3752 150.074 64.9703 165.552 67.7223 194C70.6602 224.37 93.7224 251.5 94.2223 267.5C94.7222 283.5 94.2223 538 94.2223 538H7.22227C7.22227 538 6.72216 287 7.22227 267.5C7.72239 248 30.0498 224.241 32.2223 194C34.281 165.343 19.8589 150.23 19.7223 121.5C19.606 97.0613 28.3707 83.9385 28.2223 59.5Z" fill="#23A9E3"/>
<path d="M47.5 0.5V19M47.5 19H73.2223C73.2223 19 68.0245 43.5415 67.7223 59.5C67.2578 84.021 77.162 96.981 77.7223 121.5C78.3752 150.074 64.9703 165.552 67.7223 194C70.6602 224.37 93.7224 251.5 94.2223 267.5C94.7222 283.5 94.2223 538 94.2223 538H7.22227C7.22227 538 6.72216 287 7.22227 267.5C7.72239 248 30.0498 224.241 32.2223 194C34.281 165.343 19.8589 150.23 19.7223 121.5C19.606 97.0613 28.3707 83.9385 28.2223 59.5C28.1258 43.6071 24.2223 19 24.2223 19H47.5Z" stroke="#202020"/>
<path d="M22.8516 290.516V291.422H20.9766V299H19.9141V291.422H18.6016V290.516H19.9141V289.297C19.9062 287.969 20.7422 287.164 22.1328 287.156C22.4219 287.164 22.7734 287.195 23.0078 287.25V288.203C22.7578 288.164 22.5234 288.148 22.3516 288.156C21.4141 288.148 20.9766 288.594 20.9766 289.516V290.516H22.8516ZM24.5078 299V290.516H25.5391V291.828H25.6172C25.9531 290.961 26.8672 290.391 27.9141 290.391C28.0859 290.391 28.3281 290.398 28.4609 290.406V291.484C28.375 291.461 28.1094 291.414 27.8359 291.422C26.5312 291.414 25.5781 292.32 25.5859 293.547V299H24.5078ZM29.8672 299V290.516H30.9297V299H29.8672ZM29.6328 288.328C29.6328 287.914 29.9844 287.586 30.4141 287.578C30.8359 287.586 31.1875 287.914 31.1953 288.328C31.1875 288.742 30.8359 289.07 30.4141 289.062C29.9844 289.07 29.6328 288.742 29.6328 288.328ZM36.6953 299.172C34.2969 299.18 32.7969 297.391 32.8047 294.812C32.7969 292.234 34.3281 290.398 36.5391 290.391C38.3828 290.398 40.1562 291.695 40.1641 294.578V295.078H33.8672C33.9141 297 35.0078 298.219 36.6953 298.219C37.8594 298.219 38.5469 297.617 38.8516 297.078H39.9922C39.6094 298.25 38.4062 299.18 36.6953 299.172ZM33.875 294.156H39.0703C39.0703 292.57 38.0391 291.352 36.5547 291.359C35.0234 291.352 33.9688 292.633 33.875 294.156ZM43.0859 293.734V299H42.0078V290.516H43.0391V291.859H43.1328C43.5391 290.977 44.3828 290.406 45.6328 290.406C47.3516 290.406 48.5078 291.492 48.5078 293.516V299H47.4453V293.594C47.4453 292.227 46.6328 291.367 45.3516 291.375C44.0312 291.367 43.0781 292.266 43.0859 293.734ZM53.8672 299.172C51.7891 299.18 50.3594 297.422 50.3672 294.781C50.3594 292.148 51.7969 290.398 53.8828 290.391C55.4531 290.398 56.125 291.367 56.4609 292.094H56.5391V287.688H57.6172V299H56.5703V297.469H56.4609C56.1172 298.203 55.4219 299.18 53.8672 299.172ZM51.4453 294.766C51.4375 296.703 52.3516 298.211 54.0078 298.219C55.6328 298.211 56.5703 296.773 56.5703 294.766C56.5703 292.758 55.6484 291.359 54.0078 291.359C52.3359 291.359 51.4375 292.836 51.4453 294.766ZM64.7422 293.656V294.656H59.9922V293.656H64.7422ZM70.3672 299.172C67.9688 299.18 66.4688 297.391 66.4766 294.812C66.4688 292.234 68 290.398 70.2109 290.391C72.0547 290.398 73.8281 291.695 73.8359 294.578V295.078H67.5391C67.5859 297 68.6797 298.219 70.3672 298.219C71.5312 298.219 72.2188 297.617 72.5234 297.078H73.6641C73.2812 298.25 72.0781 299.18 70.3672 299.172ZM67.5469 294.156H72.7422C72.7422 292.57 71.7109 291.352 70.2266 291.359C68.6953 291.352 67.6406 292.633 67.5469 294.156ZM78.7578 299.172C76.6797 299.18 75.25 297.422 75.2578 294.781C75.25 292.148 76.6875 290.398 78.7734 290.391C80.3438 290.398 81.0156 291.367 81.3516 292.094H81.4297V287.688H82.5078V299H81.4609V297.469H81.3516C81.0078 298.203 80.3125 299.18 78.7578 299.172ZM76.3359 294.766C76.3281 296.703 77.2422 298.211 78.8984 298.219C80.5234 298.211 81.4609 296.773 81.4609 294.766C81.4609 292.758 80.5391 291.359 78.8984 291.359C77.2266 291.359 76.3281 292.836 76.3359 294.766Z" fill="#202020"/>
<path d="M37.3047 338V329.516H38.3359V330.828H38.4297C38.7734 329.938 39.6016 329.406 40.7109 329.406C41.875 329.406 42.625 329.977 43.0078 330.938H43.0703C43.4609 330 44.3594 329.406 45.5859 329.406C47.1562 329.406 48.1641 330.406 48.1641 332.312V338H47.0859V332.328C47.0938 331.008 46.3516 330.367 45.2578 330.375C43.9844 330.367 43.2734 331.242 43.2734 332.438V338H42.1953V332.234C42.1953 331.117 41.5234 330.367 40.3984 330.375C39.25 330.367 38.375 331.289 38.3828 332.594V338H37.3047ZM50.0391 335.625C50.0312 333.898 51.4297 333.25 53.1641 333.109C53.7344 333.078 55.1016 332.984 55.5078 332.969V332.172C55.5156 331.031 54.7812 330.336 53.4453 330.344C52.3359 330.336 51.5859 330.852 51.3828 331.625H50.2734C50.4531 330.281 51.7422 329.398 53.5078 329.391C54.7734 329.398 56.5703 329.938 56.5703 332.266V338H55.5078V336.688H55.4453C55.1016 337.414 54.2578 338.195 52.8359 338.188C51.2891 338.195 50.0312 337.258 50.0391 335.625ZM51.1016 335.672C51.1016 336.672 51.9062 337.234 52.9922 337.234C54.5469 337.234 55.5156 336.117 55.5078 334.766V333.852C55.0859 333.891 53.7422 333.992 53.3203 334.016C51.8203 334.117 51.1016 334.695 51.1016 335.672ZM58.8672 341.188V329.516H59.8984V331.094H60.0234C60.3672 330.367 61.0312 329.398 62.6016 329.391C64.6953 329.398 66.1172 331.141 66.1172 333.781C66.1172 336.422 64.6953 338.18 62.6172 338.172C61.0703 338.18 60.3594 337.203 60.0234 336.469H59.9453V341.188H58.8672ZM59.9297 333.766C59.9219 335.773 60.8516 337.211 62.4766 337.219C64.1406 337.211 65.0469 335.703 65.0547 333.766C65.0469 331.836 64.1562 330.359 62.4766 330.359C60.8281 330.359 59.9219 331.758 59.9297 333.766Z" fill="#202020"/>
</svg>
