<svg width="126" height="524" viewBox="0 0 126 524" fill="none" xmlns="http://www.w3.org/2000/svg">
<path d="M27 241C27 241 27 232.5 35 229.5V224C35 224 28 223 28 206.5C28 190 43 188 43 188V181.5C43 181.5 37 178.5 35 168C33 157.5 43 151 43 151L45.5 20.5H63.25H81V151C81 151 89 156.5 89 166C89 178 81 181.5 81 181.5V188C81 188 96 191.5 96 206.5C96 221.5 89 224 89 224V229.5C94.349 231.046 96.0819 233.755 97.5 241L124.5 523H1L27 241Z" fill="#F3979D"/>
<path d="M63 0L63.25 20.5M63.25 20.5H81V151C81 151 89 156.5 89 166C89 178 81 181.5 81 181.5V188C81 188 96 191.5 96 206.5C96 221.5 89 224 89 224V229.5C94.349 231.046 96.0819 233.755 97.5 241L124.5 523H1L27 241C27 241 27 232.5 35 229.5V224C35 224 28 223 28 206.5C28 190 43 188 43 188V181.5C43 181.5 37 178.5 35 168C33 157.5 43 151 43 151L45.5 20.5H63.25Z" stroke="#202020"/>
<path d="M16.94 28.7C17.4867 28.6867 17.98 28.66 18.42 28.62C18.8733 28.5667 19.26 28.4533 19.58 28.28C19.9133 28.1067 20.1867 27.8467 20.4 27.5C20.6267 27.14 20.7867 26.64 20.88 26H21.9V40H20.64V29.6H16.94V28.7ZM28.0533 40V37.88H29.7333V40H28.0533Z" fill="#202020"/>
<path d="M42.5131 322H41.5851V320.432H41.5531C41.4464 320.699 41.2864 320.944 41.0731 321.168C40.8704 321.392 40.6357 321.584 40.3691 321.744C40.1024 321.893 39.8144 322.011 39.5051 322.096C39.2064 322.181 38.9077 322.224 38.6091 322.224C37.9797 322.224 37.4304 322.112 36.9611 321.888C36.5024 321.653 36.1184 321.339 35.8091 320.944C35.4997 320.539 35.2704 320.075 35.1211 319.552C34.9717 319.019 34.8971 318.459 34.8971 317.872C34.8971 317.285 34.9717 316.731 35.1211 316.208C35.2704 315.675 35.4997 315.211 35.8091 314.816C36.1184 314.411 36.5024 314.091 36.9611 313.856C37.4304 313.621 37.9797 313.504 38.6091 313.504C38.9184 313.504 39.2171 313.541 39.5051 313.616C39.8037 313.691 40.0811 313.808 40.3371 313.968C40.5931 314.117 40.8171 314.304 41.0091 314.528C41.2117 314.752 41.3664 315.013 41.4731 315.312H41.5051V310.576H42.5131V322ZM35.9051 317.872C35.9051 318.299 35.9531 318.725 36.0491 319.152C36.1557 319.568 36.3157 319.941 36.5291 320.272C36.7531 320.603 37.0357 320.875 37.3771 321.088C37.7184 321.291 38.1291 321.392 38.6091 321.392C39.1424 321.392 39.5904 321.291 39.9531 321.088C40.3264 320.875 40.6251 320.603 40.8491 320.272C41.0837 319.941 41.2491 319.568 41.3451 319.152C41.4517 318.725 41.5051 318.299 41.5051 317.872C41.5051 317.445 41.4517 317.024 41.3451 316.608C41.2491 316.181 41.0837 315.803 40.8491 315.472C40.6251 315.141 40.3264 314.875 39.9531 314.672C39.5904 314.459 39.1424 314.352 38.6091 314.352C38.1291 314.352 37.7184 314.459 37.3771 314.672C37.0357 314.875 36.7531 315.141 36.5291 315.472C36.3157 315.803 36.1557 316.181 36.0491 316.608C35.9531 317.024 35.9051 317.445 35.9051 317.872ZM44.4366 313.744H45.3646V315.68H45.3966C45.6526 315.008 46.0472 314.491 46.5806 314.128C47.1246 313.765 47.7699 313.6 48.5166 313.632V314.64C48.0579 314.619 47.6419 314.683 47.2686 314.832C46.8952 314.971 46.5699 315.173 46.2926 315.44C46.0259 315.707 45.8179 316.027 45.6686 316.4C45.5192 316.763 45.4446 317.163 45.4446 317.6V322H44.4366V313.744ZM49.3874 316.272C49.4194 315.792 49.5208 315.376 49.6914 315.024C49.8621 314.672 50.0914 314.384 50.3794 314.16C50.6781 313.936 51.0248 313.771 51.4194 313.664C51.8141 313.557 52.2514 313.504 52.7314 313.504C53.0941 313.504 53.4568 313.541 53.8194 313.616C54.1821 313.68 54.5074 313.808 54.7954 314C55.0834 314.192 55.3181 314.464 55.4994 314.816C55.6808 315.157 55.7714 315.605 55.7714 316.16V320.544C55.7714 320.949 55.9688 321.152 56.3634 321.152C56.4808 321.152 56.5874 321.131 56.6834 321.088V321.936C56.5661 321.957 56.4594 321.973 56.3634 321.984C56.2781 321.995 56.1661 322 56.0274 322C55.7714 322 55.5634 321.968 55.4034 321.904C55.2541 321.829 55.1368 321.728 55.0514 321.6C54.9661 321.472 54.9074 321.323 54.8754 321.152C54.8541 320.971 54.8434 320.773 54.8434 320.56H54.8114C54.6301 320.827 54.4434 321.067 54.2514 321.28C54.0701 321.483 53.8621 321.653 53.6274 321.792C53.4034 321.931 53.1421 322.037 52.8434 322.112C52.5554 322.187 52.2088 322.224 51.8034 322.224C51.4194 322.224 51.0568 322.176 50.7154 322.08C50.3848 321.995 50.0914 321.856 49.8354 321.664C49.5901 321.461 49.3928 321.211 49.2434 320.912C49.1048 320.603 49.0354 320.24 49.0354 319.824C49.0354 319.248 49.1634 318.8 49.4194 318.48C49.6754 318.149 50.0114 317.899 50.4274 317.728C50.8541 317.557 51.3288 317.44 51.8514 317.376C52.3848 317.301 52.9234 317.232 53.4674 317.168C53.6808 317.147 53.8674 317.12 54.0274 317.088C54.1874 317.056 54.3208 317.003 54.4274 316.928C54.5341 316.843 54.6141 316.731 54.6674 316.592C54.7314 316.453 54.7634 316.272 54.7634 316.048C54.7634 315.707 54.7048 315.429 54.5874 315.216C54.4808 314.992 54.3261 314.816 54.1234 314.688C53.9314 314.56 53.7021 314.475 53.4354 314.432C53.1794 314.379 52.9021 314.352 52.6034 314.352C51.9634 314.352 51.4408 314.507 51.0354 314.816C50.6301 315.115 50.4168 315.6 50.3954 316.272H49.3874ZM54.7634 317.488H54.7314C54.6674 317.605 54.5448 317.691 54.3634 317.744C54.1821 317.797 54.0221 317.835 53.8834 317.856C53.4568 317.931 53.0141 318 52.5554 318.064C52.1074 318.117 51.6968 318.203 51.3234 318.32C50.9501 318.437 50.6408 318.608 50.3954 318.832C50.1608 319.045 50.0434 319.355 50.0434 319.76C50.0434 320.016 50.0914 320.245 50.1874 320.448C50.2941 320.64 50.4328 320.811 50.6034 320.96C50.7741 321.099 50.9714 321.205 51.1954 321.28C51.4194 321.355 51.6488 321.392 51.8834 321.392C52.2674 321.392 52.6354 321.333 52.9874 321.216C53.3394 321.099 53.6434 320.928 53.8994 320.704C54.1661 320.48 54.3741 320.208 54.5234 319.888C54.6834 319.568 54.7634 319.205 54.7634 318.8V317.488ZM64.7563 321.328C64.7563 321.936 64.687 322.485 64.5483 322.976C64.4203 323.467 64.2123 323.883 63.9243 324.224C63.6363 324.565 63.2576 324.827 62.7883 325.008C62.3296 325.189 61.7643 325.28 61.0923 325.28C60.6763 325.28 60.271 325.232 59.8763 325.136C59.4816 325.04 59.1243 324.891 58.8043 324.688C58.495 324.485 58.2336 324.224 58.0203 323.904C57.8176 323.595 57.7003 323.221 57.6683 322.784H58.6763C58.7296 323.093 58.831 323.349 58.9803 323.552C59.1403 323.765 59.327 323.936 59.5403 324.064C59.7643 324.192 60.0096 324.283 60.2763 324.336C60.543 324.4 60.815 324.432 61.0923 324.432C62.031 324.432 62.7083 324.165 63.1243 323.632C63.5403 323.099 63.7483 322.331 63.7483 321.328V320.208H63.7163C63.4816 320.72 63.135 321.131 62.6763 321.44C62.2283 321.749 61.7003 321.904 61.0923 321.904C60.431 321.904 59.8656 321.797 59.3963 321.584C58.927 321.36 58.5376 321.056 58.2283 320.672C57.9296 320.288 57.711 319.84 57.5723 319.328C57.4336 318.805 57.3643 318.251 57.3643 317.664C57.3643 317.099 57.4443 316.565 57.6043 316.064C57.775 315.552 58.015 315.109 58.3243 314.736C58.6443 314.352 59.0336 314.053 59.4923 313.84C59.9616 313.616 60.495 313.504 61.0923 313.504C61.4016 313.504 61.6896 313.547 61.9563 313.632C62.2336 313.717 62.4843 313.84 62.7083 314C62.9323 314.149 63.1296 314.325 63.3003 314.528C63.4816 314.731 63.6203 314.944 63.7163 315.168H63.7483V313.744H64.7563V321.328ZM61.0923 321.056C61.5296 321.056 61.9136 320.965 62.2443 320.784C62.575 320.592 62.8523 320.347 63.0763 320.048C63.3003 319.739 63.4656 319.387 63.5723 318.992C63.6896 318.597 63.7483 318.192 63.7483 317.776C63.7483 317.371 63.7003 316.965 63.6043 316.56C63.5083 316.155 63.3536 315.787 63.1403 315.456C62.927 315.125 62.6496 314.859 62.3083 314.656C61.9776 314.453 61.5723 314.352 61.0923 314.352C60.6123 314.352 60.2016 314.453 59.8603 314.656C59.519 314.848 59.2363 315.104 59.0123 315.424C58.7883 315.744 58.623 316.112 58.5163 316.528C58.4203 316.933 58.3723 317.349 58.3723 317.776C58.3723 318.192 58.4256 318.597 58.5323 318.992C58.639 319.387 58.8043 319.739 59.0283 320.048C59.2523 320.347 59.535 320.592 59.8763 320.784C60.2176 320.965 60.623 321.056 61.0923 321.056Z" fill="#202020"/>
<path d="M76.7058 361.352C76.2258 361.352 75.8045 361.453 75.4418 361.656C75.0791 361.859 74.7751 362.125 74.5298 362.456C74.2951 362.787 74.1138 363.165 73.9858 363.592C73.8685 364.008 73.8098 364.435 73.8098 364.872C73.8098 365.309 73.8685 365.741 73.9858 366.168C74.1138 366.584 74.2951 366.957 74.5298 367.288C74.7751 367.619 75.0791 367.885 75.4418 368.088C75.8045 368.291 76.2258 368.392 76.7058 368.392C77.1858 368.392 77.6071 368.291 77.9698 368.088C78.3325 367.885 78.6311 367.619 78.8658 367.288C79.1111 366.957 79.2925 366.584 79.4098 366.168C79.5378 365.741 79.6018 365.309 79.6018 364.872C79.6018 364.435 79.5378 364.008 79.4098 363.592C79.2925 363.165 79.1111 362.787 78.8658 362.456C78.6311 362.125 78.3325 361.859 77.9698 361.656C77.6071 361.453 77.1858 361.352 76.7058 361.352ZM76.7058 360.504C77.3351 360.504 77.8898 360.621 78.3698 360.856C78.8605 361.091 79.2711 361.405 79.6018 361.8C79.9325 362.195 80.1831 362.659 80.3538 363.192C80.5245 363.715 80.6098 364.275 80.6098 364.872C80.6098 365.469 80.5245 366.035 80.3538 366.568C80.1831 367.091 79.9325 367.549 79.6018 367.944C79.2711 368.339 78.8605 368.653 78.3698 368.888C77.8898 369.112 77.3351 369.224 76.7058 369.224C76.0765 369.224 75.5165 369.112 75.0258 368.888C74.5458 368.653 74.1405 368.339 73.8098 367.944C73.4791 367.549 73.2285 367.091 73.0578 366.568C72.8871 366.035 72.8018 365.469 72.8018 364.872C72.8018 364.275 72.8871 363.715 73.0578 363.192C73.2285 362.659 73.4791 362.195 73.8098 361.8C74.1405 361.405 74.5458 361.091 75.0258 360.856C75.5165 360.621 76.0765 360.504 76.7058 360.504ZM82.0924 360.744H83.1004V362.168H83.1324C83.3244 361.667 83.6658 361.267 84.1564 360.968C84.6471 360.659 85.1858 360.504 85.7724 360.504C86.3484 360.504 86.8284 360.579 87.2124 360.728C87.6071 360.877 87.9218 361.091 88.1564 361.368C88.3911 361.635 88.5564 361.965 88.6524 362.36C88.7484 362.755 88.7964 363.197 88.7964 363.688V369H87.7884V363.848C87.7884 363.496 87.7564 363.171 87.6924 362.872C87.6284 362.563 87.5164 362.296 87.3564 362.072C87.1964 361.848 86.9778 361.672 86.7004 361.544C86.4338 361.416 86.0978 361.352 85.6924 361.352C85.2871 361.352 84.9244 361.427 84.6044 361.576C84.2951 361.715 84.0284 361.912 83.8044 362.168C83.5911 362.413 83.4204 362.712 83.2924 363.064C83.1751 363.405 83.1111 363.779 83.1004 364.184V369H82.0924V360.744Z" fill="#202020"/>
</svg>
