<svg width="119" height="521" viewBox="0 0 119 521" fill="none" xmlns="http://www.w3.org/2000/svg">
<path d="M1.92 90.54C1.89333 91.1 1.95333 91.6067 2.1 92.06C2.26 92.5133 2.48667 92.9 2.78 93.22C3.08667 93.54 3.46 93.7933 3.9 93.98C4.35333 94.1533 4.86 94.24 5.42 94.24C5.88667 94.24 6.33333 94.1733 6.76 94.04C7.18667 93.9067 7.56667 93.7067 7.9 93.44C8.23333 93.1733 8.5 92.8467 8.7 92.46C8.9 92.0733 9 91.6333 9 91.14C9 90.6333 8.91333 90.2 8.74 89.84C8.56667 89.4667 8.32667 89.16 8.02 88.92C7.71333 88.6667 7.35333 88.48 6.94 88.36C6.54 88.24 6.10667 88.18 5.64 88.18H4.58V87.12H5.64C5.96 87.12 6.28667 87.0733 6.62 86.98C6.96667 86.8733 7.27333 86.72 7.54 86.52C7.82 86.3067 8.04667 86.04 8.22 85.72C8.39333 85.4 8.48 85.02 8.48 84.58C8.48 84.1133 8.4 83.72 8.24 83.4C8.08 83.0667 7.86 82.7933 7.58 82.58C7.3 82.3533 6.97333 82.1933 6.6 82.1C6.24 81.9933 5.84667 81.94 5.42 81.94C4.9 81.94 4.44 82.0267 4.04 82.2C3.64 82.3733 3.3 82.62 3.02 82.94C2.75333 83.2467 2.55333 83.62 2.42 84.06C2.28667 84.4867 2.22667 84.96 2.24 85.48H0.98C0.98 84.8133 1.08 84.2 1.28 83.64C1.49333 83.08 1.78667 82.6 2.16 82.2C2.54667 81.7867 3.01333 81.4667 3.56 81.24C4.10667 81 4.72 80.88 5.4 80.88C5.94667 80.88 6.48 80.9533 7 81.1C7.52 81.2333 7.98 81.4467 8.38 81.74C8.79333 82.02 9.12 82.3867 9.36 82.84C9.61333 83.28 9.74 83.8133 9.74 84.44C9.74 85.2 9.53333 85.86 9.12 86.42C8.72 86.98 8.14 87.3533 7.38 87.54V87.58C8.3 87.7267 9.00667 88.1133 9.5 88.74C10.0067 89.3533 10.26 90.12 10.26 91.04C10.26 91.7333 10.1267 92.3467 9.86 92.88C9.60667 93.4 9.26 93.84 8.82 94.2C8.38 94.56 7.86667 94.8267 7.28 95C6.69333 95.1867 6.08 95.28 5.44 95.28C4.72 95.28 4.05333 95.1733 3.44 94.96C2.84 94.7467 2.32 94.44 1.88 94.04C1.45333 93.64 1.12667 93.1467 0.9 92.56C0.686667 91.9733 0.606667 91.3 0.66 90.54H1.92ZM13.0533 95V92.88H14.7333V95H13.0533Z" fill="#202020"/>
<path d="M87.5 104.5C85.7591 72.3763 99.5 23 99.5 23H53.75H8C8 23 28.5643 71.6356 29 104.5C29.3965 134.406 13.5 179.5 13.5 179.5C13.5 179.5 34.9631 237.485 34 276C33.283 304.673 19.5 348 19.5 348C19.5 348 38.4686 404.281 38 441.5C37.6047 472.9 23 520.5 23 520.5H117.5C117.5 520.5 102.282 473.02 99.5 441.5C96.2814 405.04 111 348 111 348C111 348 93.8014 304.975 92 276C89.6189 237.702 106 179.5 106 179.5C106 179.5 89.1325 134.623 87.5 104.5Z" fill="#1C8059"/>
<path d="M53.75 23H8C8 23 28.5643 71.6356 29 104.5C29.3965 134.406 13.5 179.5 13.5 179.5C13.5 179.5 34.9631 237.485 34 276C33.283 304.673 19.5 348 19.5 348C19.5 348 38.4686 404.281 38 441.5C37.6047 472.9 23 520.5 23 520.5H117.5C117.5 520.5 102.282 473.02 99.5 441.5C96.2814 405.04 111 348 111 348C111 348 93.8014 304.975 92 276C89.6189 237.702 106 179.5 106 179.5C106 179.5 89.1325 134.623 87.5 104.5C85.7591 72.3763 99.5 23 99.5 23H53.75ZM53.75 23V0" stroke="#202020"/>
<path d="M48.8906 51.5156L45.7969 60H44.6562L41.5625 51.5156H42.7188L45.1875 58.6094H45.2656L47.75 51.5156H48.8906ZM53.6562 60.1719C51.2578 60.1797 49.7578 58.3906 49.7656 55.8125C49.7578 53.2344 51.2891 51.3984 53.5 51.3906C55.3438 51.3984 57.1172 52.6953 57.125 55.5781V56.0781H50.8281C50.875 58 51.9688 59.2188 53.6562 59.2188C54.8203 59.2188 55.5078 58.6172 55.8125 58.0781H56.9531C56.5703 59.25 55.3672 60.1797 53.6562 60.1719ZM50.8359 55.1562H56.0312C56.0312 53.5703 55 52.3516 53.5156 52.3594C51.9844 52.3516 50.9297 53.6328 50.8359 55.1562ZM58.9688 60V51.5156H60V52.8281H60.0781C60.4141 51.9609 61.3281 51.3906 62.375 51.3906C62.5469 51.3906 62.7891 51.3984 62.9219 51.4062V52.4844C62.8359 52.4609 62.5703 52.4141 62.2969 52.4219C60.9922 52.4141 60.0391 53.3203 60.0469 54.5469V60H58.9688ZM65.3906 54.7344V60H64.3125V51.5156H65.3438V52.8594H65.4375C65.8438 51.9766 66.6875 51.4062 67.9375 51.4062C69.6562 51.4062 70.8125 52.4922 70.8125 54.5156V60H69.75V54.5938C69.75 53.2266 68.9375 52.3672 67.6562 52.375C66.3359 52.3672 65.3828 53.2656 65.3906 54.7344ZM73.4531 63.1875C73.2266 63.1797 73 63.1719 72.8594 63.1562L72.875 62.2031C72.9766 62.2109 73.2188 62.2188 73.3906 62.2188C73.9375 62.2188 74.4844 62.1484 74.9375 60.9062L75.2344 60.0781L72.1094 51.5156H73.2656L75.7344 58.625H75.8125L78.2969 51.5156H79.4375L75.8594 61.3125C75.3906 62.5703 74.6094 63.1797 73.4531 63.1875Z" fill="#202020"/>
</svg>
