<svg width="102" height="528" viewBox="0 0 102 528" fill="none" xmlns="http://www.w3.org/2000/svg">
<path d="M10.0882 109.5C8.65854 74.6817 25.0882 27 25.0882 27H53.0882H81.0882C81.0882 27 102.083 75.0236 101.088 109.5C100.266 137.994 81.0882 186.5 81.0882 186.5C81.0882 186.5 102.894 245.894 101.088 281.5C99.4373 314.053 83.0882 358.503 83.0882 358.503C83.0882 358.503 101.088 416.351 101.088 450.5C101.088 484.649 81.0882 527.5 81.0882 527.5H25.0882C25.0882 527.5 10.0882 484.551 10.0882 450.5C10.0882 416.449 28.5882 358.5 28.5882 358.5C28.5882 358.5 10.9005 309.41 10.0882 276.503C9.19165 240.188 31.5882 186.5 31.5882 186.5C31.5882 186.5 11.2753 138.412 10.0882 109.5Z" fill="#AFADE2"/>
<path d="M53.0882 27H81.0882C81.0882 27 102.083 75.0236 101.088 109.5C100.266 137.994 81.0882 186.5 81.0882 186.5C81.0882 186.5 102.894 245.894 101.088 281.5C99.4373 314.053 83.0882 358.503 83.0882 358.503C83.0882 358.503 101.088 416.351 101.088 450.5C101.088 484.649 81.0882 527.5 81.0882 527.5H25.0882C25.0882 527.5 10.0882 484.551 10.0882 450.5C10.0882 416.449 28.5882 358.5 28.5882 358.5C28.5882 358.5 10.9005 309.41 10.0882 276.503C9.19165 240.188 31.5882 186.5 31.5882 186.5C31.5882 186.5 11.2753 138.412 10.0882 109.5C8.65854 74.6817 25.0882 27 25.0882 27H53.0882ZM53.0882 27V0.5" stroke="#202020"/>
<path d="M1.94 20.7C2.48667 20.6867 2.98 20.66 3.42 20.62C3.87333 20.5667 4.26 20.4533 4.58 20.28C4.91333 20.1067 5.18667 19.8467 5.4 19.5C5.62667 19.14 5.78667 18.64 5.88 18H6.9V32H5.64V21.6H1.94V20.7ZM13.0533 32V29.88H14.7333V32H13.0533Z" fill="#202020"/>
<path d="M24.8359 113V101.688H25.8984V106.094H25.9922C26.3281 105.367 27 104.398 28.5547 104.391C30.6562 104.398 32.0859 106.148 32.0859 108.781C32.0859 111.422 30.6562 113.18 28.5703 113.172C27.0234 113.18 26.3359 112.203 25.9922 111.469H25.8672V113H24.8359ZM25.8828 108.766C25.8828 110.773 26.8125 112.211 28.4297 112.219C30.1016 112.211 31.0078 110.703 31.0078 108.766C31.0078 106.836 30.1094 105.359 28.4297 105.359C26.8047 105.359 25.8828 106.758 25.8828 108.766ZM37.2891 113.172C35.0625 113.18 33.5156 111.391 33.5234 108.797C33.5156 106.188 35.0625 104.398 37.2891 104.391C39.5078 104.398 41.0469 106.188 41.0391 108.797C41.0469 111.391 39.5078 113.18 37.2891 113.172ZM34.5859 108.797C34.5859 110.656 35.5391 112.219 37.2891 112.219C39.0234 112.219 39.9766 110.656 39.9766 108.797C39.9766 106.93 39.0234 105.352 37.2891 105.359C35.5469 105.352 34.5859 106.938 34.5859 108.797ZM42.8984 113V104.516H43.9297V105.828H44.0078C44.3438 104.961 45.2578 104.391 46.3047 104.391C46.4766 104.391 46.7188 104.398 46.8516 104.406V105.484C46.7656 105.461 46.5 105.414 46.2266 105.422C44.9219 105.414 43.9688 106.32 43.9766 107.547V113H42.8984ZM47.8203 110.625C47.8125 108.898 49.2109 108.25 50.9453 108.109C51.5156 108.078 52.8828 107.984 53.2891 107.969V107.172C53.2969 106.031 52.5625 105.336 51.2266 105.344C50.1172 105.336 49.3672 105.852 49.1641 106.625H48.0547C48.2344 105.281 49.5234 104.398 51.2891 104.391C52.5547 104.398 54.3516 104.938 54.3516 107.266V113H53.2891V111.688H53.2266C52.8828 112.414 52.0391 113.195 50.6172 113.188C49.0703 113.195 47.8125 112.258 47.8203 110.625ZM48.8828 110.672C48.8828 111.672 49.6875 112.234 50.7734 112.234C52.3281 112.234 53.2969 111.117 53.2891 109.766V108.852C52.8672 108.891 51.5234 108.992 51.1016 109.016C49.6016 109.117 48.8828 109.695 48.8828 110.672Z" fill="#202020"/>
</svg>
