<svg width="100" height="497" viewBox="0 0 100 497" fill="none" xmlns="http://www.w3.org/2000/svg">
<path d="M33.6726 195.568L20.8078 48H59.7807H98.7537L82.8618 195.568C82.8618 195.568 98.7537 209.946 98.7537 218.27C98.7537 226.595 82.8618 496 82.8618 496H26.8618C26.8618 496 17.7807 225.838 17.024 218.27C16.2673 210.703 33.6726 195.568 33.6726 195.568Z" fill="#F3E300"/>
<path d="M59.7807 48H98.7537L82.8618 195.568C82.8618 195.568 98.7537 209.946 98.7537 218.27C98.7537 226.595 82.8618 496 82.8618 496H26.8618C26.8618 496 17.7807 225.838 17.024 218.27C16.2673 210.703 33.6726 195.568 33.6726 195.568L20.8078 48H59.7807ZM59.7807 48V0" stroke="#202020"/>
<path d="M9.94 162H0.72C0.733333 161.307 0.853333 160.693 1.08 160.16C1.30667 159.627 1.60667 159.147 1.98 158.72C2.35333 158.293 2.77333 157.907 3.24 157.56C3.70667 157.2 4.18667 156.86 4.68 156.54C5.17333 156.207 5.66 155.873 6.14 155.54C6.63333 155.193 7.07333 154.827 7.46 154.44C7.84667 154.053 8.13333 153.66 8.32 153.26C8.52 152.847 8.62 152.36 8.62 151.8C8.62 151.347 8.53333 150.947 8.36 150.6C8.2 150.24 7.97333 149.94 7.68 149.7C7.4 149.447 7.06667 149.26 6.68 149.14C6.30667 149.007 5.90667 148.94 5.48 148.94C4.90667 148.94 4.41333 149.047 4 149.26C3.6 149.473 3.27333 149.76 3.02 150.12C2.76667 150.48 2.58 150.893 2.46 151.36C2.35333 151.827 2.30667 152.32 2.32 152.84H1.06C1.04667 152.12 1.12667 151.46 1.3 150.86C1.48667 150.247 1.76667 149.72 2.14 149.28C2.51333 148.84 2.98 148.5 3.54 148.26C4.11333 148.007 4.78 147.88 5.54 147.88C6.15333 147.88 6.72 147.967 7.24 148.14C7.77333 148.3 8.23333 148.547 8.62 148.88C9.02 149.2 9.32667 149.607 9.54 150.1C9.76667 150.593 9.88 151.167 9.88 151.82C9.88 152.407 9.78 152.94 9.58 153.42C9.39333 153.9 9.13333 154.34 8.8 154.74C8.48 155.14 8.10667 155.513 7.68 155.86C7.26667 156.193 6.82667 156.507 6.36 156.8C6.02667 157.027 5.63333 157.28 5.18 157.56C4.72667 157.827 4.28667 158.127 3.86 158.46C3.44667 158.793 3.08 159.16 2.76 159.56C2.44 159.947 2.24 160.373 2.16 160.84H9.94V162ZM13.0533 162V159.88H14.7333V162H13.0533Z" fill="#202020"/>
<path d="M32.2656 232L29.7031 223.516H30.8281L32.7969 230.406H32.875L34.8281 223.516H35.9531L37.9062 230.391H37.9688L39.9375 223.516H41.0625L38.5 232H37.4219L35.4375 225.141H35.3281L33.3594 232H32.2656ZM42.2656 229.625C42.2578 227.898 43.6562 227.25 45.3906 227.109C45.9609 227.078 47.3281 226.984 47.7344 226.969V226.172C47.7422 225.031 47.0078 224.336 45.6719 224.344C44.5625 224.336 43.8125 224.852 43.6094 225.625H42.5C42.6797 224.281 43.9688 223.398 45.7344 223.391C47 223.398 48.7969 223.938 48.7969 226.266V232H47.7344V230.688H47.6719C47.3281 231.414 46.4844 232.195 45.0625 232.188C43.5156 232.195 42.2578 231.258 42.2656 229.625ZM43.3281 229.672C43.3281 230.672 44.1328 231.234 45.2188 231.234C46.7734 231.234 47.7422 230.117 47.7344 228.766V227.852C47.3125 227.891 45.9688 227.992 45.5469 228.016C44.0469 228.117 43.3281 228.695 43.3281 229.672ZM52.1719 220.688V232H51.0938V220.688H52.1719ZM55.5312 220.688V232H54.4531V220.688H55.5312ZM61.2812 232.172C58.8828 232.18 57.3828 230.391 57.3906 227.812C57.3828 225.234 58.9141 223.398 61.125 223.391C62.9688 223.398 64.7422 224.695 64.75 227.578V228.078H58.4531C58.5 230 59.5938 231.219 61.2812 231.219C62.4453 231.219 63.1328 230.617 63.4375 230.078H64.5781C64.1953 231.25 62.9922 232.18 61.2812 232.172ZM58.4609 227.156H63.6562C63.6562 225.57 62.625 224.352 61.1406 224.359C59.6094 224.352 58.5547 225.633 58.4609 227.156ZM70.0156 223.516V224.422H68.2344V229.734C68.2266 230.805 68.8281 231.102 69.4688 231.109L70.1719 231.078V232.078C70 232.094 69.7344 232.125 69.375 232.125C68.2734 232.125 67.1562 231.406 67.1562 230V224.422H65.8906V223.516H67.1562V221.484H68.2344V223.516H70.0156ZM73.1875 226.734V232H72.1094V220.688H73.1875V224.859H73.2656C73.6719 223.969 74.4922 223.406 75.7812 223.406C77.5078 223.406 78.6797 224.477 78.6719 226.516V232H77.6094V226.594C77.6094 225.211 76.7891 224.367 75.5 224.375C74.1562 224.367 73.1797 225.266 73.1875 226.734ZM81.3125 235.188C81.0859 235.18 80.8594 235.172 80.7188 235.156L80.7344 234.203C80.8359 234.211 81.0781 234.219 81.25 234.219C81.7969 234.219 82.3438 234.148 82.7969 232.906L83.0938 232.078L79.9688 223.516H81.125L83.5938 230.625H83.6719L86.1562 223.516H87.2969L83.7188 233.312C83.25 234.57 82.4688 235.18 81.3125 235.188Z" fill="#202020"/>
</svg>
