<svg width="26" height="59" viewBox="0 0 26 59" fill="none" xmlns="http://www.w3.org/2000/svg">
<path d="M25.5 29.25C25.5 37.274 24.0535 44.5142 21.7355 49.7298C20.5762 52.3382 19.2087 54.4181 17.7155 55.8392C16.2249 57.2578 14.6322 58 13 58C11.3678 58 9.77515 57.2578 8.28451 55.8392C6.79129 54.4181 5.42381 52.3382 4.26452 49.7298C1.94649 44.5142 0.5 37.274 0.5 29.25C0.5 21.226 1.94649 13.9858 4.26452 8.7702C5.42381 6.16178 6.79129 4.08186 8.28451 2.66081C9.77515 1.24221 11.3678 0.5 13 0.5C14.6322 0.5 16.2249 1.24221 17.7155 2.66081C19.2087 4.08186 20.5762 6.16178 21.7355 8.7702C24.0535 13.9858 25.5 21.226 25.5 29.25Z" stroke="#F64725"/>
</svg>
